<svg xmlns="http://www.w3.org/2000/svg" xmlns:xlink="http://www.w3.org/1999/xlink" width="500" zoomAndPan="magnify" viewBox="0 0 375 374.999991" height="500" preserveAspectRatio="xMidYMid meet" version="1.0"><defs><g/><clipPath id="0fe85a8534"><rect x="0" width="199" y="0" height="126"/></clipPath><clipPath id="86bfc6bb7a"><rect x="0" width="199" y="0" height="126"/></clipPath></defs><g transform="matrix(1, 0, 0, 1, 90, 103)"><g clip-path="url(#0fe85a8534)"><g fill="#000000" fill-opacity="1"><g transform="translate(0.0717247, 86.261052)"><g><path d="M 25.476562 1.027344 C 21.546875 1.027344 17.980469 0.160156 14.777344 -1.574219 C 11.5625 -3.3125 9.011719 -5.875 7.128906 -9.261719 C 5.25 -12.636719 4.308594 -16.667969 4.308594 -21.34375 C 4.308594 -24.890625 4.917969 -28.839844 6.136719 -33.1875 C 8.808594 -42.492188 13.023438 -49.070312 18.78125 -52.925781 C 24.515625 -56.769531 30.652344 -58.691406 37.179688 -58.691406 C 43.164062 -58.691406 48.558594 -56.527344 53.359375 -52.191406 L 53.019531 -51.8125 L 52.664062 -52.179688 L 55.257812 -54.6875 L 55.269531 -54.699219 C 56.742188 -55.9375 58.015625 -56.792969 59.09375 -57.273438 C 60.191406 -57.761719 61.464844 -58.003906 62.914062 -58.003906 C 64.523438 -58.003906 65.835938 -57.609375 66.84375 -56.820312 C 67.894531 -56 68.417969 -54.90625 68.417969 -53.535156 C 68.417969 -53.03125 68.328125 -52.441406 68.144531 -51.765625 L 65.039062 -40.90625 L 65.039062 -40.902344 C 64.4375 -38.984375 63.71875 -37.621094 62.882812 -36.8125 C 62.007812 -35.972656 60.84375 -35.550781 59.386719 -35.550781 C 57.910156 -35.550781 56.597656 -35.921875 55.449219 -36.667969 C 54.339844 -37.386719 53.078125 -38.660156 51.667969 -40.484375 C 49.859375 -42.855469 48.273438 -44.527344 46.910156 -45.5 C 45.59375 -46.441406 44.160156 -46.914062 42.605469 -46.914062 C 40.175781 -46.914062 37.847656 -45.664062 35.625 -43.167969 C 33.355469 -40.617188 31.367188 -36.335938 29.667969 -30.328125 C 28.589844 -26.417969 28.054688 -23.050781 28.054688 -20.226562 C 28.054688 -17.296875 28.605469 -15.089844 29.714844 -13.601562 C 30.789062 -12.164062 32.304688 -11.441406 34.253906 -11.441406 C 35.964844 -11.441406 37.273438 -11.832031 38.183594 -12.609375 C 39.105469 -13.402344 39.84375 -14.808594 40.390625 -16.832031 L 40.992188 -18.988281 L 41.484375 -18.847656 L 40.988281 -18.972656 C 41.265625 -20.078125 41.402344 -20.8125 41.402344 -21.171875 C 41.402344 -21.710938 41.300781 -22.070312 41.097656 -22.257812 C 40.820312 -22.507812 40.332031 -22.796875 39.636719 -23.117188 L 39.847656 -23.582031 L 39.671875 -23.101562 L 36.660156 -24.222656 C 35.117188 -24.824219 34.347656 -25.933594 34.347656 -27.542969 C 34.347656 -27.984375 34.378906 -28.34375 34.449219 -28.613281 L 34.449219 -28.625 L 34.457031 -28.640625 C 34.722656 -29.511719 35.21875 -30.15625 35.9375 -30.566406 C 36.617188 -30.957031 37.636719 -31.152344 38.988281 -31.152344 L 64.984375 -31.066406 C 67.214844 -31.066406 68.332031 -30.292969 68.332031 -28.746094 C 68.332031 -28.476562 68.269531 -28.089844 68.144531 -27.589844 C 67.890625 -26.636719 67.472656 -25.867188 66.890625 -25.285156 C 66.339844 -24.734375 65.554688 -24.1875 64.53125 -23.648438 L 64.292969 -24.097656 L 64.546875 -23.65625 L 62.3125 -22.367188 C 61.785156 -22.050781 61.394531 -21.753906 61.140625 -21.472656 C 60.914062 -21.222656 60.75 -20.910156 60.65625 -20.53125 L 60.65625 -20.523438 L 56.089844 -4.59375 C 55.488281 -2.601562 54.792969 -1.257812 54 -0.5625 C 53.1875 0.152344 52.199219 0.511719 51.039062 0.511719 L 47.421875 0.511719 C 45.945312 0.511719 44.71875 0.195312 43.746094 -0.429688 C 42.757812 -1.070312 41.957031 -2.273438 41.347656 -4.050781 L 40.484375 -6.546875 L 40.96875 -6.714844 L 41.355469 -6.378906 C 37.125 -1.441406 31.828125 1.027344 25.476562 1.027344 Z M 25.476562 0.00390625 C 31.515625 0.00390625 36.550781 -2.34375 40.582031 -7.046875 L 41.160156 -7.722656 L 42.3125 -4.382812 C 42.847656 -2.832031 43.511719 -1.800781 44.300781 -1.289062 C 45.105469 -0.769531 46.148438 -0.511719 47.421875 -0.511719 L 51.039062 -0.511719 C 51.941406 -0.511719 52.707031 -0.785156 53.324219 -1.332031 C 53.96875 -1.898438 54.566406 -3.078125 55.109375 -4.875 L 59.671875 -20.796875 L 60.160156 -20.65625 L 59.664062 -20.78125 C 59.800781 -21.324219 60.042969 -21.78125 60.386719 -22.164062 C 60.707031 -22.515625 61.179688 -22.878906 61.800781 -23.25 L 64.046875 -24.546875 L 64.054688 -24.550781 C 64.984375 -25.042969 65.6875 -25.53125 66.167969 -26.011719 C 66.621094 -26.460938 66.949219 -27.070312 67.152344 -27.839844 C 67.257812 -28.257812 67.3125 -28.558594 67.3125 -28.746094 C 67.3125 -29.609375 66.535156 -30.042969 64.980469 -30.042969 L 38.988281 -30.128906 C 37.816406 -30.128906 36.96875 -29.980469 36.445312 -29.679688 C 35.960938 -29.402344 35.621094 -28.957031 35.433594 -28.339844 L 34.945312 -28.488281 L 35.441406 -28.363281 C 35.390625 -28.175781 35.367188 -27.902344 35.367188 -27.542969 C 35.367188 -26.398438 35.917969 -25.609375 37.015625 -25.179688 L 40.046875 -24.054688 L 40.0625 -24.046875 C 40.855469 -23.679688 41.429688 -23.335938 41.785156 -23.015625 C 42.210938 -22.625 42.425781 -22.011719 42.425781 -21.171875 C 42.425781 -20.730469 42.277344 -19.914062 41.980469 -18.726562 L 41.980469 -18.71875 L 41.375 -16.5625 C 40.773438 -14.339844 39.933594 -12.761719 38.847656 -11.832031 C 37.75 -10.890625 36.21875 -10.417969 34.253906 -10.417969 C 31.960938 -10.417969 30.175781 -11.277344 28.894531 -12.992188 C 27.652344 -14.660156 27.03125 -17.070312 27.03125 -20.226562 C 27.03125 -23.140625 27.582031 -26.601562 28.683594 -30.605469 C 30.429688 -36.765625 32.488281 -41.179688 34.863281 -43.847656 C 37.289062 -46.574219 39.867188 -47.933594 42.605469 -47.933594 C 44.378906 -47.933594 46.011719 -47.402344 47.503906 -46.332031 C 48.953125 -45.300781 50.609375 -43.558594 52.476562 -41.109375 C 53.816406 -39.375 54.996094 -38.179688 56.007812 -37.523438 C 56.984375 -36.890625 58.109375 -36.574219 59.386719 -36.574219 C 60.570312 -36.574219 61.5 -36.898438 62.175781 -37.550781 C 62.886719 -38.234375 63.515625 -39.453125 64.0625 -41.207031 L 64.550781 -41.054688 L 64.058594 -41.195312 L 67.15625 -52.035156 C 67.316406 -52.621094 67.398438 -53.121094 67.398438 -53.535156 C 67.398438 -54.574219 67.003906 -55.398438 66.214844 -56.015625 C 65.390625 -56.660156 64.289062 -56.980469 62.914062 -56.980469 C 61.609375 -56.980469 60.476562 -56.765625 59.507812 -56.339844 C 58.519531 -55.898438 57.328125 -55.089844 55.929688 -53.917969 L 55.601562 -54.308594 L 55.957031 -53.941406 L 53.03125 -51.113281 L 52.675781 -51.433594 C 48.066406 -55.59375 42.902344 -57.671875 37.179688 -57.671875 C 30.859375 -57.671875 24.914062 -55.804688 19.347656 -52.078125 C 13.800781 -48.359375 9.722656 -41.972656 7.121094 -32.914062 C 5.925781 -28.652344 5.332031 -24.796875 5.332031 -21.34375 C 5.332031 -16.84375 6.226562 -12.980469 8.019531 -9.757812 C 9.808594 -6.546875 12.222656 -4.117188 15.261719 -2.472656 C 18.3125 -0.820312 21.71875 0.00390625 25.476562 0.00390625 Z M 25.476562 0.00390625 "/></g></g></g><g fill="#000000" fill-opacity="1"><g transform="translate(65.208051, 86.261052)"><g><path d="M 67.046875 -57.832031 C 69.742188 -57.832031 71.085938 -56.917969 71.085938 -55.082031 C 71.085938 -54.625 71.050781 -54.285156 70.976562 -54.0625 L 70.488281 -54.222656 L 70.980469 -54.074219 C 70.78125 -53.414062 70.472656 -52.890625 70.0625 -52.511719 C 69.695312 -52.175781 69.183594 -51.800781 68.527344 -51.382812 L 68.519531 -51.378906 L 68.515625 -51.375 C 67.699219 -50.882812 67.019531 -50.34375 66.480469 -49.746094 C 65.957031 -49.171875 65.503906 -48.261719 65.125 -47.015625 L 64.636719 -47.164062 L 65.128906 -47.027344 L 54.457031 -8.8125 C 53.457031 -5.277344 52.1875 -2.789062 50.65625 -1.347656 C 49.09375 0.121094 46.957031 0.855469 44.238281 0.855469 C 41.816406 0.855469 39.792969 0.136719 38.175781 -1.296875 C 36.601562 -2.691406 35.140625 -4.824219 33.792969 -7.699219 L 20.796875 -35.070312 L 21.257812 -35.289062 L 21.75 -35.148438 L 14.519531 -10.015625 L 14.027344 -10.15625 L 14.527344 -10.042969 C 14.363281 -9.332031 14.28125 -8.710938 14.28125 -8.175781 C 14.28125 -7.515625 14.390625 -6.976562 14.609375 -6.566406 C 14.847656 -6.113281 15.183594 -5.644531 15.617188 -5.160156 L 15.621094 -5.15625 L 15.625 -5.148438 C 16.335938 -4.308594 16.691406 -3.566406 16.691406 -2.925781 C 16.691406 -2.527344 16.65625 -2.214844 16.578125 -1.988281 L 16.09375 -2.152344 L 16.585938 -2.011719 C 16.308594 -1.046875 15.691406 -0.375 14.734375 0.00390625 C 13.867188 0.339844 12.601562 0.511719 10.929688 0.511719 L 1.550781 0.511719 C -1.144531 0.511719 -2.492188 -0.40625 -2.492188 -2.238281 C -2.492188 -2.695312 -2.453125 -3.035156 -2.378906 -3.261719 L -1.894531 -3.097656 L -2.382812 -3.246094 C -2.183594 -3.910156 -1.878906 -4.429688 -1.464844 -4.808594 C -1.097656 -5.144531 -0.585938 -5.523438 0.0703125 -5.941406 L 0.0742188 -5.941406 L 0.0820312 -5.945312 C 0.898438 -6.4375 1.578125 -6.980469 2.117188 -7.574219 C 2.640625 -8.148438 3.089844 -9.058594 3.46875 -10.304688 L 14.398438 -48.941406 L 14.890625 -48.800781 L 14.429688 -48.578125 L 13.054688 -51.417969 C 12.445312 -52.632812 12.140625 -53.710938 12.140625 -54.652344 C 12.140625 -55.710938 12.492188 -56.511719 13.199219 -57.058594 C 13.867188 -57.574219 14.832031 -57.832031 16.09375 -57.832031 L 28.832031 -57.832031 C 30.796875 -57.832031 32.300781 -57.375 33.34375 -56.457031 C 34.339844 -55.582031 35.398438 -54.054688 36.515625 -51.875 L 49.085938 -26.652344 L 48.628906 -26.421875 L 48.136719 -26.5625 L 54.074219 -47.304688 L 54.566406 -47.164062 L 54.066406 -47.273438 C 54.230469 -48.039062 54.3125 -48.664062 54.3125 -49.144531 C 54.3125 -49.804688 54.203125 -50.34375 53.988281 -50.757812 C 53.746094 -51.207031 53.410156 -51.675781 52.980469 -52.160156 L 52.976562 -52.167969 L 52.972656 -52.171875 C 52.261719 -53.011719 51.90625 -53.753906 51.90625 -54.394531 C 51.90625 -54.792969 51.941406 -55.105469 52.015625 -55.332031 L 52.5 -55.167969 L 52.011719 -55.308594 C 52.285156 -56.277344 52.902344 -56.945312 53.863281 -57.324219 C 54.726562 -57.664062 55.996094 -57.832031 57.664062 -57.832031 Z M 67.046875 -56.808594 L 57.664062 -56.808594 C 56.125 -56.808594 54.980469 -56.664062 54.238281 -56.371094 C 53.589844 -56.117188 53.175781 -55.671875 52.992188 -55.027344 L 52.988281 -55.019531 L 52.988281 -55.007812 C 52.945312 -54.886719 52.925781 -54.683594 52.925781 -54.394531 C 52.925781 -54.003906 53.203125 -53.484375 53.753906 -52.832031 L 53.363281 -52.5 L 53.746094 -52.839844 C 54.230469 -52.292969 54.613281 -51.757812 54.890625 -51.234375 C 55.1875 -50.671875 55.335938 -49.976562 55.335938 -49.144531 C 55.335938 -48.59375 55.246094 -47.898438 55.066406 -47.058594 L 55.0625 -47.042969 L 48.757812 -25.015625 L 35.609375 -51.40625 C 34.546875 -53.472656 33.566406 -54.898438 32.667969 -55.691406 C 31.820312 -56.4375 30.539062 -56.808594 28.832031 -56.808594 L 16.09375 -56.808594 C 15.0625 -56.808594 14.308594 -56.625 13.824219 -56.25 C 13.382812 -55.90625 13.164062 -55.375 13.164062 -54.652344 C 13.164062 -53.875 13.433594 -52.941406 13.972656 -51.863281 L 15.433594 -48.847656 L 4.449219 -10.007812 C 4.023438 -8.613281 3.5 -7.574219 2.875 -6.886719 C 2.265625 -6.21875 1.511719 -5.613281 0.605469 -5.070312 L 0.34375 -5.507812 L 0.617188 -5.078125 C 0.0117188 -4.691406 -0.453125 -4.351562 -0.773438 -4.054688 C -1.046875 -3.804688 -1.257812 -3.433594 -1.402344 -2.953125 L -1.410156 -2.9375 C -1.449219 -2.816406 -1.46875 -2.585938 -1.46875 -2.238281 C -1.46875 -1.085938 -0.460938 -0.511719 1.550781 -0.511719 L 10.929688 -0.511719 C 12.472656 -0.511719 13.617188 -0.65625 14.359375 -0.949219 C 15.003906 -1.203125 15.421875 -1.652344 15.601562 -2.292969 L 15.605469 -2.304688 L 15.609375 -2.3125 C 15.648438 -2.433594 15.667969 -2.636719 15.667969 -2.925781 C 15.667969 -3.316406 15.394531 -3.839844 14.84375 -4.488281 L 15.234375 -4.820312 L 14.851562 -4.480469 C 14.367188 -5.027344 13.984375 -5.5625 13.707031 -6.085938 C 13.410156 -6.648438 13.257812 -7.347656 13.257812 -8.175781 C 13.257812 -8.789062 13.351562 -9.488281 13.53125 -10.269531 L 13.535156 -10.285156 L 21.140625 -36.726562 L 34.71875 -8.136719 C 36.007812 -5.386719 37.386719 -3.363281 38.855469 -2.0625 C 40.277344 -0.796875 42.074219 -0.167969 44.238281 -0.167969 C 46.6875 -0.167969 48.589844 -0.808594 49.957031 -2.09375 C 51.351562 -3.40625 52.523438 -5.738281 53.472656 -9.089844 L 64.144531 -47.308594 L 64.148438 -47.3125 C 64.570312 -48.707031 65.097656 -49.746094 65.722656 -50.4375 C 66.328125 -51.105469 67.085938 -51.710938 67.988281 -52.25 L 68.253906 -51.8125 L 67.976562 -52.246094 C 68.582031 -52.628906 69.046875 -52.96875 69.371094 -53.265625 C 69.644531 -53.519531 69.855469 -53.886719 70 -54.371094 L 70.003906 -54.378906 L 70.003906 -54.382812 C 70.042969 -54.503906 70.066406 -54.738281 70.066406 -55.082031 C 70.066406 -56.234375 69.058594 -56.808594 67.046875 -56.808594 Z M 67.046875 -56.808594 "/></g></g></g><g fill="#000000" fill-opacity="1"><g transform="translate(127.763017, 86.261052)"><g><path d="M 29.953125 1.027344 C 25.058594 1.027344 20.652344 0.121094 16.742188 -1.6875 C 12.808594 -3.507812 9.679688 -6.195312 7.359375 -9.746094 C 5.039062 -13.304688 3.878906 -17.601562 3.878906 -22.636719 C 3.878906 -26.128906 4.488281 -29.90625 5.707031 -33.972656 C 8.382812 -42.691406 12.433594 -48.992188 17.863281 -52.875 C 23.289062 -56.753906 29.097656 -58.691406 35.289062 -58.691406 C 38.621094 -58.691406 41.582031 -58.195312 44.164062 -57.195312 C 46.746094 -56.199219 49.117188 -54.761719 51.285156 -52.886719 L 50.953125 -52.5 L 50.636719 -52.90625 L 52.960938 -54.710938 C 54.546875 -55.945312 55.886719 -56.796875 56.988281 -57.273438 C 58.117188 -57.761719 59.375 -58.003906 60.765625 -58.003906 C 62.308594 -58.003906 63.558594 -57.65625 64.507812 -56.960938 C 65.507812 -56.226562 66.007812 -55.171875 66.007812 -53.792969 C 66.007812 -53.101562 65.882812 -52.410156 65.632812 -51.722656 L 60.816406 -38.300781 L 60.332031 -38.472656 L 60.820312 -38.3125 C 60.273438 -36.675781 59.605469 -35.511719 58.820312 -34.816406 C 58.007812 -34.101562 56.820312 -33.742188 55.253906 -33.742188 C 53.609375 -33.742188 52.265625 -34.332031 51.214844 -35.507812 C 50.234375 -36.605469 49.132812 -38.46875 47.90625 -41.097656 L 48.371094 -41.3125 L 47.914062 -41.082031 C 46.5625 -43.730469 45.476562 -45.464844 44.652344 -46.289062 C 43.890625 -47.046875 42.75 -47.429688 41.226562 -47.429688 C 39.042969 -47.429688 36.914062 -46.046875 34.835938 -43.285156 C 32.691406 -40.4375 30.738281 -36.140625 28.976562 -30.402344 C 27.5 -25.574219 26.761719 -21.550781 26.761719 -18.332031 C 26.761719 -15.582031 27.269531 -13.546875 28.289062 -12.234375 C 29.277344 -10.960938 30.605469 -10.324219 32.277344 -10.324219 C 34.867188 -10.324219 36.992188 -10.894531 38.65625 -12.039062 C 40.371094 -13.222656 42.132812 -14.828125 43.941406 -16.863281 C 45.109375 -18.148438 46.058594 -19.097656 46.792969 -19.714844 C 47.605469 -20.394531 48.476562 -20.738281 49.402344 -20.738281 C 50.566406 -20.738281 51.769531 -20.175781 53.015625 -19.058594 C 54.285156 -17.914062 54.886719 -16.746094 54.820312 -15.550781 L 54.308594 -15.578125 L 54.820312 -15.601562 C 54.882812 -14.210938 53.828125 -12.148438 51.652344 -9.40625 C 49.519531 -6.714844 46.570312 -4.308594 42.8125 -2.179688 C 39.035156 -0.0429688 34.746094 1.027344 29.953125 1.027344 Z M 29.953125 0.00390625 C 34.566406 0.00390625 38.6875 -1.019531 42.308594 -3.070312 C 45.953125 -5.132812 48.800781 -7.457031 50.851562 -10.042969 C 52.867188 -12.582031 53.851562 -14.421875 53.796875 -15.554688 L 53.796875 -15.605469 C 53.847656 -16.476562 53.359375 -17.375 52.332031 -18.296875 C 51.28125 -19.242188 50.304688 -19.714844 49.402344 -19.714844 C 48.722656 -19.714844 48.074219 -19.453125 47.449219 -18.929688 C 46.75 -18.34375 45.835938 -17.429688 44.707031 -16.183594 C 42.84375 -14.089844 41.019531 -12.425781 39.234375 -11.199219 C 37.398438 -9.933594 35.078125 -9.300781 32.277344 -9.300781 C 30.273438 -9.300781 28.675781 -10.070312 27.480469 -11.605469 C 26.320312 -13.105469 25.738281 -15.347656 25.738281 -18.332031 C 25.738281 -21.652344 26.492188 -25.777344 28 -30.703125 C 29.796875 -36.554688 31.800781 -40.957031 34.019531 -43.902344 C 36.300781 -46.933594 38.703125 -48.453125 41.226562 -48.453125 C 43.03125 -48.453125 44.414062 -47.972656 45.375 -47.011719 C 46.273438 -46.113281 47.425781 -44.289062 48.824219 -41.546875 L 48.828125 -41.539062 L 48.832031 -41.527344 C 50.015625 -38.992188 51.066406 -37.210938 51.980469 -36.1875 C 52.824219 -35.238281 53.917969 -34.765625 55.253906 -34.765625 C 56.5625 -34.765625 57.523438 -35.039062 58.144531 -35.585938 C 58.792969 -36.15625 59.363281 -37.171875 59.847656 -38.632812 L 59.851562 -38.640625 L 64.671875 -52.074219 C 64.882812 -52.648438 64.988281 -53.222656 64.988281 -53.792969 C 64.988281 -54.824219 64.625 -55.605469 63.90625 -56.132812 C 63.132812 -56.699219 62.085938 -56.980469 60.765625 -56.980469 C 59.515625 -56.980469 58.390625 -56.765625 57.394531 -56.335938 C 56.375 -55.894531 55.105469 -55.082031 53.589844 -53.90625 L 50.933594 -51.839844 L 50.617188 -52.113281 C 48.539062 -53.914062 46.265625 -55.289062 43.796875 -56.242188 C 41.332031 -57.195312 38.496094 -57.671875 35.289062 -57.671875 C 29.316406 -57.671875 23.703125 -55.792969 18.457031 -52.042969 C 13.214844 -48.292969 9.292969 -42.171875 6.6875 -33.679688 C 5.496094 -29.710938 4.902344 -26.027344 4.902344 -22.636719 C 4.902344 -17.804688 6.007812 -13.691406 8.21875 -10.304688 C 10.429688 -6.917969 13.414062 -4.351562 17.171875 -2.617188 C 20.945312 -0.867188 25.207031 0.00390625 29.953125 0.00390625 Z M 29.953125 0.00390625 "/></g></g></g></g></g><g transform="matrix(1, 0, 0, 1, 94, 103)"><g clip-path="url(#86bfc6bb7a)"><g fill="#000000" fill-opacity="1"><g transform="translate(0.488602, 86.261052)"><g><path d="M 25.46875 0.515625 C 21.625 0.515625 18.140625 -0.328125 15.015625 -2.015625 C 11.890625 -3.710938 9.40625 -6.207031 7.5625 -9.5 C 5.726562 -12.800781 4.8125 -16.75 4.8125 -21.34375 C 4.8125 -24.84375 5.414062 -28.742188 6.625 -33.046875 C 9.257812 -42.222656 13.40625 -48.703125 19.0625 -52.484375 C 24.71875 -56.273438 30.753906 -58.171875 37.171875 -58.171875 C 43.023438 -58.171875 48.304688 -56.050781 53.015625 -51.8125 L 55.59375 -54.3125 C 57.03125 -55.507812 58.265625 -56.335938 59.296875 -56.796875 C 60.328125 -57.253906 61.53125 -57.484375 62.90625 -57.484375 C 64.40625 -57.484375 65.613281 -57.125 66.53125 -56.40625 C 67.445312 -55.695312 67.90625 -54.738281 67.90625 -53.53125 C 67.90625 -53.070312 67.816406 -52.523438 67.640625 -51.890625 L 64.546875 -41.046875 C 63.972656 -39.210938 63.296875 -37.921875 62.515625 -37.171875 C 61.742188 -36.429688 60.703125 -36.0625 59.390625 -36.0625 C 58.003906 -36.0625 56.78125 -36.40625 55.71875 -37.09375 C 54.664062 -37.78125 53.445312 -39.015625 52.0625 -40.796875 C 50.226562 -43.203125 48.609375 -44.90625 47.203125 -45.90625 C 45.796875 -46.914062 44.257812 -47.421875 42.59375 -47.421875 C 40.019531 -47.421875 37.566406 -46.113281 35.234375 -43.5 C 32.910156 -40.894531 30.890625 -36.550781 29.171875 -30.46875 C 28.085938 -26.507812 27.546875 -23.09375 27.546875 -20.21875 C 27.546875 -17.175781 28.128906 -14.867188 29.296875 -13.296875 C 30.472656 -11.722656 32.125 -10.9375 34.25 -10.9375 C 36.082031 -10.9375 37.5 -11.363281 38.5 -12.21875 C 39.507812 -13.082031 40.300781 -14.578125 40.875 -16.703125 L 41.484375 -18.84375 C 41.765625 -19.988281 41.90625 -20.765625 41.90625 -21.171875 C 41.90625 -21.859375 41.75 -22.34375 41.4375 -22.625 C 41.125 -22.914062 40.59375 -23.234375 39.84375 -23.578125 L 36.828125 -24.703125 C 35.515625 -25.210938 34.859375 -26.160156 34.859375 -27.546875 C 34.859375 -27.941406 34.882812 -28.253906 34.9375 -28.484375 C 35.164062 -29.234375 35.582031 -29.78125 36.1875 -30.125 C 36.789062 -30.46875 37.722656 -30.640625 38.984375 -30.640625 L 64.984375 -30.546875 C 66.867188 -30.546875 67.8125 -29.945312 67.8125 -28.75 C 67.8125 -28.519531 67.753906 -28.175781 67.640625 -27.71875 C 67.410156 -26.851562 67.035156 -26.160156 66.515625 -25.640625 C 66.003906 -25.128906 65.257812 -24.613281 64.28125 -24.09375 L 62.046875 -22.8125 C 61.472656 -22.46875 61.039062 -22.132812 60.75 -21.8125 C 60.46875 -21.5 60.269531 -21.113281 60.15625 -20.65625 L 55.59375 -4.734375 C 55.019531 -2.835938 54.375 -1.570312 53.65625 -0.9375 C 52.9375 -0.3125 52.0625 0 51.03125 0 L 47.421875 0 C 46.046875 0 44.910156 -0.285156 44.015625 -0.859375 C 43.128906 -1.429688 42.398438 -2.550781 41.828125 -4.21875 L 40.96875 -6.71875 C 36.832031 -1.894531 31.664062 0.515625 25.46875 0.515625 Z M 25.46875 0.515625 "/></g></g></g><g fill="#000000" fill-opacity="1"><g transform="translate(65.624929, 86.261052)"><g><path d="M 67.046875 -57.3125 C 69.398438 -57.3125 70.578125 -56.566406 70.578125 -55.078125 C 70.578125 -54.679688 70.546875 -54.394531 70.484375 -54.21875 C 70.316406 -53.644531 70.054688 -53.195312 69.703125 -52.875 C 69.359375 -52.5625 68.875 -52.207031 68.25 -51.8125 C 67.382812 -51.289062 66.664062 -50.710938 66.09375 -50.078125 C 65.519531 -49.453125 65.035156 -48.476562 64.640625 -47.15625 L 53.96875 -8.953125 C 52.988281 -5.503906 51.765625 -3.09375 50.296875 -1.71875 C 48.835938 -0.34375 46.816406 0.34375 44.234375 0.34375 C 41.941406 0.34375 40.035156 -0.328125 38.515625 -1.671875 C 36.992188 -3.023438 35.570312 -5.109375 34.25 -7.921875 L 21.25 -35.28125 L 14.03125 -10.15625 C 13.851562 -9.40625 13.765625 -8.742188 13.765625 -8.171875 C 13.765625 -7.429688 13.894531 -6.816406 14.15625 -6.328125 C 14.414062 -5.835938 14.773438 -5.332031 15.234375 -4.8125 C 15.867188 -4.070312 16.1875 -3.441406 16.1875 -2.921875 C 16.1875 -2.578125 16.15625 -2.320312 16.09375 -2.15625 C 15.863281 -1.351562 15.347656 -0.789062 14.546875 -0.46875 C 13.742188 -0.15625 12.539062 0 10.9375 0 L 1.546875 0 C -0.804688 0 -1.984375 -0.742188 -1.984375 -2.234375 C -1.984375 -2.640625 -1.953125 -2.925781 -1.890625 -3.09375 C -1.722656 -3.664062 -1.46875 -4.109375 -1.125 -4.421875 C -0.78125 -4.742188 -0.289062 -5.109375 0.34375 -5.515625 C 1.207031 -6.023438 1.925781 -6.59375 2.5 -7.21875 C 3.070312 -7.851562 3.554688 -8.832031 3.953125 -10.15625 L 14.890625 -48.796875 L 13.515625 -51.640625 C 12.941406 -52.785156 12.65625 -53.789062 12.65625 -54.65625 C 12.65625 -56.425781 13.800781 -57.3125 16.09375 -57.3125 L 28.828125 -57.3125 C 30.660156 -57.3125 32.050781 -56.894531 33 -56.0625 C 33.945312 -55.238281 34.96875 -53.765625 36.0625 -51.640625 L 48.625 -26.421875 L 54.5625 -47.15625 C 54.738281 -47.957031 54.828125 -48.617188 54.828125 -49.140625 C 54.828125 -49.890625 54.695312 -50.503906 54.4375 -50.984375 C 54.175781 -51.472656 53.816406 -51.976562 53.359375 -52.5 C 52.722656 -53.238281 52.40625 -53.867188 52.40625 -54.390625 C 52.40625 -54.734375 52.4375 -54.992188 52.5 -55.171875 C 52.726562 -55.972656 53.242188 -56.53125 54.046875 -56.84375 C 54.847656 -57.15625 56.050781 -57.3125 57.65625 -57.3125 Z M 67.046875 -57.3125 "/></g></g></g><g fill="#000000" fill-opacity="1"><g transform="translate(128.179895, 86.261052)"><g><path d="M 29.953125 0.515625 C 25.128906 0.515625 20.796875 -0.367188 16.953125 -2.140625 C 13.109375 -3.921875 10.050781 -6.546875 7.78125 -10.015625 C 5.519531 -13.492188 4.390625 -17.703125 4.390625 -22.640625 C 4.390625 -26.078125 4.992188 -29.804688 6.203125 -33.828125 C 8.835938 -42.429688 12.820312 -48.640625 18.15625 -52.453125 C 23.488281 -56.265625 29.195312 -58.171875 35.28125 -58.171875 C 38.550781 -58.171875 41.445312 -57.679688 43.96875 -56.703125 C 46.5 -55.734375 48.828125 -54.332031 50.953125 -52.5 L 53.265625 -54.3125 C 54.816406 -55.507812 56.125 -56.335938 57.1875 -56.796875 C 58.25 -57.253906 59.441406 -57.484375 60.765625 -57.484375 C 62.191406 -57.484375 63.335938 -57.164062 64.203125 -56.53125 C 65.066406 -55.90625 65.5 -54.988281 65.5 -53.78125 C 65.5 -53.15625 65.382812 -52.523438 65.15625 -51.890625 L 60.328125 -38.46875 C 59.816406 -36.914062 59.203125 -35.820312 58.484375 -35.1875 C 57.765625 -34.5625 56.6875 -34.25 55.25 -34.25 C 53.757812 -34.25 52.539062 -34.78125 51.59375 -35.84375 C 50.644531 -36.90625 49.566406 -38.726562 48.359375 -41.3125 C 46.984375 -44.007812 45.863281 -45.785156 45 -46.640625 C 44.144531 -47.503906 42.882812 -47.9375 41.21875 -47.9375 C 38.875 -47.9375 36.609375 -46.488281 34.421875 -43.59375 C 32.242188 -40.695312 30.265625 -36.347656 28.484375 -30.546875 C 26.992188 -25.671875 26.25 -21.597656 26.25 -18.328125 C 26.25 -15.460938 26.789062 -13.328125 27.875 -11.921875 C 28.96875 -10.515625 30.429688 -9.8125 32.265625 -9.8125 C 34.960938 -9.8125 37.1875 -10.410156 38.9375 -11.609375 C 40.6875 -12.816406 42.484375 -14.457031 44.328125 -16.53125 C 45.472656 -17.789062 46.398438 -18.71875 47.109375 -19.3125 C 47.828125 -19.914062 48.59375 -20.21875 49.40625 -20.21875 C 50.4375 -20.21875 51.523438 -19.703125 52.671875 -18.671875 C 53.816406 -17.640625 54.363281 -16.609375 54.3125 -15.578125 C 54.363281 -14.316406 53.34375 -12.363281 51.25 -9.71875 C 49.15625 -7.082031 46.253906 -4.71875 42.546875 -2.625 C 38.847656 -0.53125 34.648438 0.515625 29.953125 0.515625 Z M 29.953125 0.515625 "/></g></g></g></g></g><g fill="#000000" fill-opacity="1"><g transform="translate(42.522046, 194.498529)"><g><path d="M 6.53125 3.328125 C 5.539062 2.847656 4.742188 2.191406 4.140625 1.359375 C 3.546875 0.523438 3.21875 -0.429688 3.15625 -1.515625 C 3.09375 -2.597656 3.347656 -3.734375 3.921875 -4.921875 C 4.359375 -5.828125 5.003906 -6.765625 5.859375 -7.734375 C 7.691406 -9.785156 9.578125 -10.945312 11.515625 -11.21875 C 13.453125 -11.488281 15.253906 -11.222656 16.921875 -10.421875 C 18.441406 -9.691406 19.546875 -8.484375 20.234375 -6.796875 L 21.21875 -7.109375 C 21.738281 -7.242188 22.15625 -7.304688 22.46875 -7.296875 C 22.789062 -7.296875 23.132812 -7.207031 23.5 -7.03125 C 23.882812 -6.84375 24.15625 -6.597656 24.3125 -6.296875 C 24.46875 -6.003906 24.46875 -5.695312 24.3125 -5.375 C 24.257812 -5.257812 24.171875 -5.128906 24.046875 -4.984375 L 21.875 -2.578125 C 21.5 -2.171875 21.160156 -1.914062 20.859375 -1.8125 C 20.566406 -1.71875 20.25 -1.753906 19.90625 -1.921875 C 19.550781 -2.097656 19.28125 -2.335938 19.09375 -2.640625 C 18.914062 -2.953125 18.753906 -3.425781 18.609375 -4.0625 C 18.441406 -4.914062 18.234375 -5.5625 17.984375 -6 C 17.742188 -6.4375 17.410156 -6.757812 16.984375 -6.96875 C 16.316406 -7.289062 15.515625 -7.257812 14.578125 -6.875 C 13.648438 -6.488281 12.582031 -5.609375 11.375 -4.234375 C 10.601562 -3.347656 10.035156 -2.535156 9.671875 -1.796875 C 9.296875 -1.003906 9.160156 -0.332031 9.265625 0.21875 C 9.367188 0.78125 9.691406 1.191406 10.234375 1.453125 C 10.710938 1.691406 11.132812 1.757812 11.5 1.65625 C 11.875 1.550781 12.269531 1.257812 12.6875 0.78125 L 13.109375 0.3125 C 13.328125 0.0507812 13.460938 -0.128906 13.515625 -0.234375 C 13.597656 -0.410156 13.617188 -0.554688 13.578125 -0.671875 C 13.535156 -0.796875 13.4375 -0.953125 13.28125 -1.140625 L 12.640625 -1.796875 C 12.359375 -2.085938 12.304688 -2.414062 12.484375 -2.78125 C 12.535156 -2.882812 12.582031 -2.960938 12.625 -3.015625 C 12.769531 -3.179688 12.945312 -3.269531 13.15625 -3.28125 C 13.363281 -3.300781 13.628906 -3.234375 13.953125 -3.078125 L 20.671875 0.203125 C 21.171875 0.453125 21.34375 0.734375 21.1875 1.046875 C 21.15625 1.109375 21.097656 1.1875 21.015625 1.28125 C 20.847656 1.46875 20.660156 1.597656 20.453125 1.671875 C 20.253906 1.753906 20 1.796875 19.6875 1.796875 L 18.953125 1.859375 C 18.765625 1.867188 18.609375 1.898438 18.484375 1.953125 C 18.367188 2.003906 18.273438 2.078125 18.203125 2.171875 L 15.015625 5.75 C 14.628906 6.15625 14.300781 6.394531 14.03125 6.46875 C 13.769531 6.539062 13.5 6.515625 13.21875 6.390625 L 12.296875 5.9375 C 11.941406 5.769531 11.6875 5.550781 11.53125 5.28125 C 11.375 5.019531 11.320312 4.640625 11.375 4.140625 L 11.46875 3.375 C 9.789062 4.125 8.144531 4.109375 6.53125 3.328125 Z M 6.53125 3.328125 "/></g></g></g><g fill="#000000" fill-opacity="1"><g transform="translate(59.75257, 202.797472)"><g><path d="M 17.578125 -11.015625 C 19.503906 -10.222656 20.820312 -9.148438 21.53125 -7.796875 C 22.238281 -6.441406 22.242188 -4.910156 21.546875 -3.203125 C 21.210938 -2.398438 20.734375 -1.578125 20.109375 -0.734375 C 18.941406 0.785156 17.628906 1.941406 16.171875 2.734375 C 14.722656 3.535156 13.207031 3.96875 11.625 4.03125 C 10.050781 4.101562 8.484375 3.816406 6.921875 3.171875 C 5.015625 2.390625 3.703125 1.320312 2.984375 -0.03125 C 2.273438 -1.394531 2.269531 -2.929688 2.96875 -4.640625 C 3.289062 -5.421875 3.789062 -6.265625 4.46875 -7.171875 C 5.613281 -8.679688 6.90625 -9.832031 8.34375 -10.625 C 9.789062 -11.414062 11.296875 -11.835938 12.859375 -11.890625 C 14.429688 -11.953125 16.003906 -11.660156 17.578125 -11.015625 Z M 16.25 -8.9375 C 15.789062 -9.125 15.300781 -9.109375 14.78125 -8.890625 C 14.257812 -8.679688 13.648438 -8.234375 12.953125 -7.546875 C 12.253906 -6.859375 11.394531 -5.863281 10.375 -4.5625 C 8.875 -2.664062 7.957031 -1.316406 7.625 -0.515625 C 7.4375 -0.0351562 7.378906 0.34375 7.453125 0.625 C 7.523438 0.90625 7.75 1.125 8.125 1.28125 C 8.582031 1.46875 9.070312 1.445312 9.59375 1.21875 C 10.113281 1 10.71875 0.550781 11.40625 -0.125 C 12.101562 -0.800781 12.960938 -1.785156 13.984375 -3.078125 C 15.453125 -4.929688 16.359375 -6.285156 16.703125 -7.140625 C 16.910156 -7.628906 16.972656 -8.015625 16.890625 -8.296875 C 16.804688 -8.578125 16.59375 -8.789062 16.25 -8.9375 Z M 16.25 -8.9375 "/></g></g></g><g fill="#000000" fill-opacity="1"><g transform="translate(76.88783, 209.832455)"><g><path d="M 16.890625 -12.03125 C 18.859375 -11.351562 20.238281 -10.359375 21.03125 -9.046875 C 21.820312 -7.742188 21.914062 -6.21875 21.3125 -4.46875 C 21.03125 -3.644531 20.597656 -2.796875 20.015625 -1.921875 C 18.953125 -0.328125 17.71875 0.90625 16.3125 1.78125 C 14.914062 2.664062 13.429688 3.1875 11.859375 3.34375 C 10.285156 3.5 8.695312 3.300781 7.09375 2.75 C 5.144531 2.082031 3.773438 1.09375 2.984375 -0.21875 C 2.191406 -1.539062 2.097656 -3.070312 2.703125 -4.8125 C 2.972656 -5.613281 3.414062 -6.484375 4.03125 -7.421875 C 5.09375 -8.992188 6.320312 -10.21875 7.71875 -11.09375 C 9.113281 -11.96875 10.585938 -12.476562 12.140625 -12.625 C 13.703125 -12.78125 15.285156 -12.582031 16.890625 -12.03125 Z M 15.703125 -9.890625 C 15.222656 -10.054688 14.726562 -10.015625 14.21875 -9.765625 C 13.71875 -9.515625 13.140625 -9.023438 12.484375 -8.296875 C 11.828125 -7.566406 11.03125 -6.519531 10.09375 -5.15625 C 8.707031 -3.1875 7.867188 -1.785156 7.578125 -0.953125 C 7.410156 -0.472656 7.375 -0.09375 7.46875 0.1875 C 7.570312 0.46875 7.8125 0.675781 8.1875 0.8125 C 8.664062 0.96875 9.15625 0.914062 9.65625 0.65625 C 10.15625 0.40625 10.726562 -0.078125 11.375 -0.796875 C 12.03125 -1.515625 12.832031 -2.546875 13.78125 -3.890625 C 15.132812 -5.835938 15.960938 -7.242188 16.265625 -8.109375 C 16.429688 -8.609375 16.46875 -9 16.375 -9.28125 C 16.28125 -9.5625 16.054688 -9.765625 15.703125 -9.890625 Z M 15.703125 -9.890625 "/></g></g></g><g fill="#000000" fill-opacity="1"><g transform="translate(94.412752, 215.866005)"><g><path d="M 15.859375 -12.703125 C 18.253906 -12.046875 19.925781 -11.09375 20.875 -9.84375 C 21.832031 -8.59375 22.066406 -7.085938 21.578125 -5.328125 C 21.335938 -4.453125 20.894531 -3.484375 20.25 -2.421875 C 19.21875 -0.722656 18.101562 0.539062 16.90625 1.375 C 15.707031 2.21875 14.3125 2.679688 12.71875 2.765625 C 11.125 2.859375 9.191406 2.578125 6.921875 1.921875 L 0.453125 0.09375 C 0.109375 0 -0.140625 -0.125 -0.296875 -0.28125 C -0.453125 -0.445312 -0.5 -0.625 -0.4375 -0.8125 C -0.414062 -0.90625 -0.363281 -1.003906 -0.28125 -1.109375 C -0.195312 -1.242188 -0.101562 -1.328125 0 -1.359375 C 0.113281 -1.398438 0.269531 -1.453125 0.46875 -1.515625 C 0.769531 -1.585938 1.019531 -1.6875 1.21875 -1.8125 C 1.414062 -1.945312 1.625 -2.191406 1.84375 -2.546875 L 7.59375 -12.015625 C 7.726562 -12.191406 7.820312 -12.378906 7.875 -12.578125 C 7.925781 -12.753906 7.941406 -12.910156 7.921875 -13.046875 C 7.898438 -13.179688 7.859375 -13.335938 7.796875 -13.515625 C 7.710938 -13.765625 7.6875 -13.953125 7.71875 -14.078125 C 7.726562 -14.128906 7.769531 -14.210938 7.84375 -14.328125 C 7.957031 -14.523438 8.132812 -14.632812 8.375 -14.65625 C 8.625 -14.675781 8.96875 -14.625 9.40625 -14.5 Z M 14.28125 -4.640625 C 15.101562 -6.023438 15.632812 -7.148438 15.875 -8.015625 C 16.113281 -8.859375 16.101562 -9.488281 15.84375 -9.90625 C 15.582031 -10.320312 15.125 -10.625 14.46875 -10.8125 L 13.9375 -10.953125 L 7.484375 -0.234375 L 8.0625 -0.078125 C 8.789062 0.117188 9.453125 0.132812 10.046875 -0.03125 C 10.640625 -0.207031 11.265625 -0.648438 11.921875 -1.359375 C 12.578125 -2.066406 13.363281 -3.160156 14.28125 -4.640625 Z M 14.28125 -4.640625 "/></g></g></g><g fill="#000000" fill-opacity="1"><g transform="translate(113.106485, 220.914575)"><g/></g></g><g fill="#000000" fill-opacity="1"><g transform="translate(118.126642, 222.22171)"><g><path d="M 22.140625 -12.453125 C 22.804688 -12.316406 23.097656 -12.039062 23.015625 -11.625 C 22.992188 -11.507812 22.96875 -11.425781 22.9375 -11.375 C 22.84375 -11.21875 22.738281 -11.109375 22.625 -11.046875 C 22.519531 -10.984375 22.367188 -10.910156 22.171875 -10.828125 C 21.898438 -10.722656 21.664062 -10.597656 21.46875 -10.453125 C 21.269531 -10.316406 21.070312 -10.070312 20.875 -9.71875 L 15.734375 0.484375 C 15.273438 1.390625 14.800781 2 14.3125 2.3125 C 13.820312 2.625 13.210938 2.707031 12.484375 2.5625 C 11.835938 2.4375 11.332031 2.140625 10.96875 1.671875 C 10.613281 1.203125 10.328125 0.535156 10.109375 -0.328125 L 7.984375 -8.78125 L 4.53125 -2.078125 C 4.4375 -1.890625 4.375 -1.710938 4.34375 -1.546875 C 4.300781 -1.335938 4.300781 -1.15625 4.34375 -1 C 4.394531 -0.84375 4.472656 -0.679688 4.578125 -0.515625 C 4.703125 -0.265625 4.75 -0.0664062 4.71875 0.078125 C 4.707031 0.179688 4.691406 0.253906 4.671875 0.296875 C 4.546875 0.503906 4.363281 0.628906 4.125 0.671875 C 3.882812 0.722656 3.535156 0.703125 3.078125 0.609375 L 0.4375 0.09375 C -0.21875 -0.0390625 -0.503906 -0.316406 -0.421875 -0.734375 C -0.398438 -0.847656 -0.378906 -0.929688 -0.359375 -0.984375 C -0.273438 -1.140625 -0.175781 -1.25 -0.0625 -1.3125 C 0.0390625 -1.375 0.195312 -1.453125 0.40625 -1.546875 C 0.664062 -1.640625 0.894531 -1.757812 1.09375 -1.90625 C 1.300781 -2.050781 1.5 -2.296875 1.6875 -2.640625 L 6.921875 -12.953125 L 6.6875 -13.84375 C 6.59375 -14.1875 6.570312 -14.484375 6.625 -14.734375 C 6.726562 -15.234375 7.101562 -15.414062 7.75 -15.28125 L 11.34375 -14.578125 C 11.863281 -14.472656 12.234375 -14.273438 12.453125 -13.984375 C 12.671875 -13.703125 12.875 -13.234375 13.0625 -12.578125 L 15.203125 -4.75 L 18.046875 -10.28125 C 18.140625 -10.488281 18.203125 -10.671875 18.234375 -10.828125 C 18.265625 -11.023438 18.257812 -11.203125 18.21875 -11.359375 C 18.175781 -11.515625 18.097656 -11.679688 17.984375 -11.859375 C 17.859375 -12.097656 17.8125 -12.289062 17.84375 -12.4375 C 17.863281 -12.539062 17.882812 -12.617188 17.90625 -12.671875 C 18.019531 -12.867188 18.195312 -12.988281 18.4375 -13.03125 C 18.6875 -13.082031 19.039062 -13.0625 19.5 -12.96875 Z M 22.140625 -12.453125 "/></g></g></g><g fill="#000000" fill-opacity="1"><g transform="translate(136.141419, 225.749777)"><g><path d="M 18.3125 -14.09375 C 18.90625 -14.007812 19.351562 -13.8125 19.65625 -13.5 C 19.957031 -13.195312 20.078125 -12.816406 20.015625 -12.359375 C 19.984375 -12.128906 19.921875 -11.910156 19.828125 -11.703125 L 18.875 -9.53125 C 18.695312 -9.09375 18.484375 -8.800781 18.234375 -8.65625 C 17.992188 -8.519531 17.664062 -8.484375 17.25 -8.546875 C 16.863281 -8.597656 16.570312 -8.722656 16.375 -8.921875 C 16.175781 -9.128906 16.046875 -9.441406 15.984375 -9.859375 L 15.796875 -11.296875 C 15.753906 -11.597656 15.679688 -11.804688 15.578125 -11.921875 C 15.484375 -12.035156 15.269531 -12.117188 14.9375 -12.171875 L 12.359375 -12.53125 L 10.515625 -8.34375 L 11.609375 -8.1875 C 11.722656 -8.175781 11.882812 -8.238281 12.09375 -8.375 L 13.046875 -8.984375 C 13.328125 -9.160156 13.5625 -9.285156 13.75 -9.359375 C 13.9375 -9.429688 14.160156 -9.453125 14.421875 -9.421875 C 14.722656 -9.378906 14.953125 -9.265625 15.109375 -9.078125 C 15.273438 -8.898438 15.34375 -8.691406 15.3125 -8.453125 C 15.300781 -8.390625 15.269531 -8.289062 15.21875 -8.15625 L 13.75 -4.875 C 13.59375 -4.53125 13.382812 -4.285156 13.125 -4.140625 C 12.863281 -4.003906 12.59375 -3.957031 12.3125 -4 C 11.851562 -4.0625 11.546875 -4.347656 11.390625 -4.859375 L 11.09375 -5.796875 C 11.019531 -6.035156 10.859375 -6.175781 10.609375 -6.21875 L 9.65625 -6.34375 L 7.484375 -1.359375 L 9.625 -1.0625 C 9.9375 -1.019531 10.21875 -1.039062 10.46875 -1.125 C 10.71875 -1.207031 11.007812 -1.382812 11.34375 -1.65625 L 13.03125 -3.078125 C 13.34375 -3.328125 13.625 -3.492188 13.875 -3.578125 C 14.132812 -3.671875 14.429688 -3.695312 14.765625 -3.65625 C 15.128906 -3.601562 15.414062 -3.476562 15.625 -3.28125 C 15.832031 -3.082031 15.910156 -2.816406 15.859375 -2.484375 C 15.835938 -2.347656 15.796875 -2.191406 15.734375 -2.015625 L 14.671875 0.34375 C 14.398438 0.9375 14.078125 1.332031 13.703125 1.53125 C 13.328125 1.738281 12.804688 1.796875 12.140625 1.703125 L 0.453125 0.0625 C 0.0976562 0.0078125 -0.160156 -0.0820312 -0.328125 -0.21875 C -0.503906 -0.363281 -0.578125 -0.535156 -0.546875 -0.734375 C -0.535156 -0.835938 -0.492188 -0.9375 -0.421875 -1.03125 C -0.335938 -1.195312 -0.210938 -1.316406 -0.046875 -1.390625 C 0.109375 -1.472656 0.207031 -1.523438 0.25 -1.546875 C 0.53125 -1.671875 0.765625 -1.804688 0.953125 -1.953125 C 1.140625 -2.109375 1.316406 -2.367188 1.484375 -2.734375 L 5.984375 -12.90625 C 6.066406 -13.09375 6.125 -13.28125 6.15625 -13.46875 C 6.1875 -13.664062 6.179688 -13.832031 6.140625 -13.96875 C 6.097656 -14.113281 6.035156 -14.269531 5.953125 -14.4375 C 5.835938 -14.65625 5.789062 -14.832031 5.8125 -14.96875 C 5.8125 -15.019531 5.835938 -15.109375 5.890625 -15.234375 C 5.984375 -15.441406 6.148438 -15.570312 6.390625 -15.625 C 6.628906 -15.6875 6.96875 -15.6875 7.40625 -15.625 Z M 18.3125 -14.09375 "/></g></g></g><g fill="#000000" fill-opacity="1"><g transform="translate(153.035731, 228.311652)"><g><path d="M 31.96875 -12.03125 C 31.925781 -11.4375 31.75 -10.929688 31.4375 -10.515625 C 31.132812 -10.097656 30.765625 -9.789062 30.328125 -9.59375 C 29.898438 -9.394531 29.488281 -9.3125 29.09375 -9.34375 C 28.707031 -9.363281 28.347656 -9.476562 28.015625 -9.6875 C 27.691406 -9.90625 27.492188 -10.140625 27.421875 -10.390625 L 20.734375 -0.765625 C 20.222656 -0.015625 19.769531 0.503906 19.375 0.796875 C 18.976562 1.097656 18.539062 1.234375 18.0625 1.203125 C 16.96875 1.128906 16.394531 0.378906 16.34375 -1.046875 L 16.03125 -8.390625 L 10.5625 -1.4375 C 9.925781 -0.632812 9.421875 -0.101562 9.046875 0.15625 C 8.671875 0.425781 8.253906 0.546875 7.796875 0.515625 C 6.785156 0.453125 6.222656 -0.378906 6.109375 -1.984375 L 5.28125 -13.25 C 5.25 -13.59375 5.164062 -13.867188 5.03125 -14.078125 C 4.90625 -14.285156 4.738281 -14.484375 4.53125 -14.671875 C 4.40625 -14.816406 4.3125 -14.9375 4.25 -15.03125 C 4.1875 -15.125 4.160156 -15.234375 4.171875 -15.359375 C 4.128906 -15.960938 4.507812 -16.238281 5.3125 -16.1875 L 11.484375 -15.78125 C 11.859375 -15.75 12.132812 -15.648438 12.3125 -15.484375 C 12.488281 -15.316406 12.554688 -15.101562 12.515625 -14.84375 C 12.503906 -14.707031 12.457031 -14.578125 12.375 -14.453125 C 12.300781 -14.335938 12.21875 -14.238281 12.125 -14.15625 C 11.9375 -13.96875 11.796875 -13.785156 11.703125 -13.609375 C 11.617188 -13.429688 11.578125 -13.191406 11.578125 -12.890625 L 11.8125 -6.890625 L 15.890625 -11.953125 L 15.875 -12.546875 C 15.84375 -12.867188 15.769531 -13.128906 15.65625 -13.328125 C 15.539062 -13.535156 15.375 -13.742188 15.15625 -13.953125 C 15 -14.109375 14.890625 -14.234375 14.828125 -14.328125 C 14.765625 -14.421875 14.738281 -14.53125 14.75 -14.65625 C 14.707031 -15.257812 15.09375 -15.535156 15.90625 -15.484375 L 22.09375 -15.078125 C 22.46875 -15.046875 22.75 -14.945312 22.9375 -14.78125 C 23.125 -14.613281 23.195312 -14.398438 23.15625 -14.140625 C 23.144531 -13.921875 23.015625 -13.691406 22.765625 -13.453125 C 22.585938 -13.265625 22.453125 -13.082031 22.359375 -12.90625 C 22.273438 -12.726562 22.226562 -12.488281 22.21875 -12.1875 L 22.15625 -6.78125 L 25.875 -12.390625 C 26.488281 -13.296875 27.0625 -13.914062 27.59375 -14.25 C 28.125 -14.59375 28.800781 -14.738281 29.625 -14.6875 C 30.375 -14.632812 30.960938 -14.367188 31.390625 -13.890625 C 31.828125 -13.410156 32.019531 -12.789062 31.96875 -12.03125 Z M 31.96875 -12.03125 "/></g></g></g><g fill="#000000" fill-opacity="1"><g transform="translate(181.780709, 229.994321)"><g><path d="M 9.140625 -16.71875 C 10.066406 -16.726562 10.925781 -16.625 11.71875 -16.40625 C 12.507812 -16.1875 13.304688 -15.84375 14.109375 -15.375 L 14.6875 -15.84375 C 15.082031 -16.15625 15.40625 -16.367188 15.65625 -16.484375 C 15.90625 -16.597656 16.195312 -16.660156 16.53125 -16.671875 C 16.925781 -16.671875 17.238281 -16.582031 17.46875 -16.40625 C 17.707031 -16.238281 17.828125 -15.988281 17.828125 -15.65625 C 17.828125 -15.53125 17.804688 -15.390625 17.765625 -15.234375 L 16.75 -11.828125 C 16.632812 -11.429688 16.488281 -11.144531 16.3125 -10.96875 C 16.132812 -10.800781 15.875 -10.71875 15.53125 -10.71875 C 15.164062 -10.71875 14.847656 -10.828125 14.578125 -11.046875 C 14.304688 -11.273438 13.875 -11.726562 13.28125 -12.40625 C 12.707031 -13.070312 12.179688 -13.535156 11.703125 -13.796875 C 11.234375 -14.066406 10.75 -14.203125 10.25 -14.203125 C 9.882812 -14.203125 9.578125 -14.078125 9.328125 -13.828125 C 9.085938 -13.585938 8.96875 -13.296875 8.96875 -12.953125 C 8.96875 -12.554688 9.171875 -12.191406 9.578125 -11.859375 C 9.984375 -11.523438 10.601562 -11.097656 11.4375 -10.578125 C 12.3125 -10.078125 13.03125 -9.625 13.59375 -9.21875 C 14.15625 -8.8125 14.632812 -8.300781 15.03125 -7.6875 C 15.4375 -7.082031 15.640625 -6.382812 15.640625 -5.59375 C 15.648438 -5.070312 15.570312 -4.554688 15.40625 -4.046875 C 15.019531 -2.722656 14.257812 -1.710938 13.125 -1.015625 C 11.988281 -0.328125 10.660156 0.0195312 9.140625 0.03125 C 8.003906 0.0390625 7.046875 -0.078125 6.265625 -0.328125 C 5.492188 -0.585938 4.695312 -1.035156 3.875 -1.671875 L 3 -0.90625 C 2.582031 -0.5625 2.242188 -0.328125 1.984375 -0.203125 C 1.722656 -0.078125 1.425781 -0.015625 1.09375 -0.015625 C 0.707031 -0.00390625 0.398438 -0.0859375 0.171875 -0.265625 C -0.046875 -0.453125 -0.15625 -0.703125 -0.15625 -1.015625 C -0.164062 -1.179688 -0.132812 -1.351562 -0.0625 -1.53125 L 1.140625 -5.25 C 1.253906 -5.675781 1.425781 -5.976562 1.65625 -6.15625 C 1.894531 -6.34375 2.195312 -6.4375 2.5625 -6.4375 C 2.9375 -6.4375 3.273438 -6.304688 3.578125 -6.046875 C 3.890625 -5.785156 4.296875 -5.304688 4.796875 -4.609375 C 5.328125 -3.859375 5.820312 -3.332031 6.28125 -3.03125 C 6.738281 -2.738281 7.285156 -2.597656 7.921875 -2.609375 C 8.359375 -2.609375 8.695312 -2.675781 8.9375 -2.8125 C 9.175781 -2.957031 9.34375 -3.1875 9.4375 -3.5 C 9.46875 -3.582031 9.484375 -3.707031 9.484375 -3.875 C 9.484375 -4.269531 9.289062 -4.632812 8.90625 -4.96875 C 8.53125 -5.300781 7.941406 -5.691406 7.140625 -6.140625 C 6.296875 -6.648438 5.609375 -7.101562 5.078125 -7.5 C 4.546875 -7.90625 4.082031 -8.410156 3.6875 -9.015625 C 3.289062 -9.617188 3.09375 -10.335938 3.09375 -11.171875 C 3.082031 -11.742188 3.164062 -12.316406 3.34375 -12.890625 C 3.6875 -14.035156 4.390625 -14.957031 5.453125 -15.65625 C 6.523438 -16.351562 7.753906 -16.707031 9.140625 -16.71875 Z M 9.140625 -16.71875 "/></g></g></g><g fill="#000000" fill-opacity="1"><g transform="translate(199.065736, 229.758227)"><g/></g></g><g fill="#000000" fill-opacity="1"><g transform="translate(204.242184, 229.64131)"><g><path d="M 8.609375 -0.515625 C 7.234375 -0.410156 5.96875 -0.570312 4.8125 -1 C 3.664062 -1.425781 2.726562 -2.109375 2 -3.046875 C 1.28125 -3.992188 0.863281 -5.175781 0.75 -6.59375 C 0.675781 -7.570312 0.765625 -8.65625 1.015625 -9.84375 C 1.566406 -12.375 2.566406 -14.25 4.015625 -15.46875 C 5.472656 -16.6875 7.070312 -17.363281 8.8125 -17.5 C 9.757812 -17.570312 10.601562 -17.492188 11.34375 -17.265625 C 12.082031 -17.046875 12.78125 -16.695312 13.4375 -16.21875 L 14.0625 -16.796875 C 14.488281 -17.171875 14.847656 -17.4375 15.140625 -17.59375 C 15.429688 -17.75 15.769531 -17.84375 16.15625 -17.875 C 16.550781 -17.90625 16.878906 -17.84375 17.140625 -17.6875 C 17.410156 -17.53125 17.554688 -17.273438 17.578125 -16.921875 C 17.597656 -16.742188 17.582031 -16.554688 17.53125 -16.359375 L 16.453125 -12.40625 C 16.347656 -11.945312 16.195312 -11.617188 16 -11.421875 C 15.800781 -11.222656 15.492188 -11.109375 15.078125 -11.078125 C 14.648438 -11.046875 14.289062 -11.171875 14 -11.453125 C 13.707031 -11.742188 13.351562 -12.242188 12.9375 -12.953125 C 12.476562 -13.691406 12.117188 -14.171875 11.859375 -14.390625 C 11.609375 -14.617188 11.242188 -14.71875 10.765625 -14.6875 C 10.085938 -14.632812 9.460938 -14.164062 8.890625 -13.28125 C 8.328125 -12.40625 7.859375 -11.113281 7.484375 -9.40625 C 7.171875 -7.976562 7.050781 -6.796875 7.125 -5.859375 C 7.195312 -5.035156 7.398438 -4.429688 7.734375 -4.046875 C 8.078125 -3.671875 8.515625 -3.503906 9.046875 -3.546875 C 9.816406 -3.609375 10.441406 -3.828125 10.921875 -4.203125 C 11.398438 -4.585938 11.875 -5.101562 12.34375 -5.75 C 12.644531 -6.132812 12.890625 -6.421875 13.078125 -6.609375 C 13.273438 -6.804688 13.488281 -6.910156 13.71875 -6.921875 C 14.019531 -6.953125 14.34375 -6.832031 14.6875 -6.5625 C 15.039062 -6.289062 15.222656 -6.003906 15.234375 -5.703125 C 15.273438 -5.335938 15.023438 -4.753906 14.484375 -3.953125 C 13.953125 -3.148438 13.175781 -2.40625 12.15625 -1.71875 C 11.144531 -1.03125 9.960938 -0.628906 8.609375 -0.515625 Z M 8.609375 -0.515625 "/></g></g></g><g fill="#000000" fill-opacity="1"><g transform="translate(221.686284, 228.272362)"><g><path d="M 9.671875 -18.34375 C 11.734375 -18.625 13.410156 -18.359375 14.703125 -17.546875 C 15.992188 -16.734375 16.765625 -15.410156 17.015625 -13.578125 C 17.140625 -12.710938 17.140625 -11.765625 17.015625 -10.734375 C 16.773438 -8.828125 16.222656 -7.164062 15.359375 -5.75 C 14.503906 -4.332031 13.410156 -3.195312 12.078125 -2.34375 C 10.753906 -1.5 9.257812 -0.960938 7.59375 -0.734375 C 5.539062 -0.453125 3.863281 -0.71875 2.5625 -1.53125 C 1.257812 -2.351562 0.484375 -3.679688 0.234375 -5.515625 C 0.117188 -6.347656 0.128906 -7.320312 0.265625 -8.4375 C 0.492188 -10.3125 1.035156 -11.953125 1.890625 -13.359375 C 2.742188 -14.773438 3.832031 -15.898438 5.15625 -16.734375 C 6.476562 -17.578125 7.984375 -18.113281 9.671875 -18.34375 Z M 9.5625 -15.890625 C 9.070312 -15.816406 8.65625 -15.554688 8.3125 -15.109375 C 7.96875 -14.671875 7.664062 -13.976562 7.40625 -13.03125 C 7.15625 -12.09375 6.910156 -10.796875 6.671875 -9.140625 C 6.328125 -6.753906 6.21875 -5.128906 6.34375 -4.265625 C 6.40625 -3.753906 6.539062 -3.394531 6.75 -3.1875 C 6.96875 -2.988281 7.269531 -2.914062 7.65625 -2.96875 C 8.15625 -3.039062 8.570312 -3.300781 8.90625 -3.75 C 9.25 -4.207031 9.546875 -4.90625 9.796875 -5.84375 C 10.054688 -6.78125 10.304688 -8.054688 10.546875 -9.671875 C 10.890625 -12.015625 11 -13.640625 10.875 -14.546875 C 10.800781 -15.078125 10.65625 -15.441406 10.4375 -15.640625 C 10.226562 -15.847656 9.9375 -15.929688 9.5625 -15.890625 Z M 9.5625 -15.890625 "/></g></g></g><g fill="#000000" fill-opacity="1"><g transform="translate(240.138156, 225.870104)"><g><path d="M 22.65625 -21.609375 C 23 -21.679688 23.273438 -21.6875 23.484375 -21.625 C 23.691406 -21.5625 23.8125 -21.429688 23.84375 -21.234375 C 23.863281 -21.160156 23.863281 -21.050781 23.84375 -20.90625 C 23.84375 -20.75 23.800781 -20.617188 23.71875 -20.515625 C 23.644531 -20.421875 23.53125 -20.304688 23.375 -20.171875 C 23.144531 -19.960938 22.96875 -19.753906 22.84375 -19.546875 C 22.726562 -19.335938 22.65625 -19.035156 22.625 -18.640625 L 21.859375 -7.59375 C 21.835938 -7.363281 21.84375 -7.15625 21.875 -6.96875 C 21.914062 -6.789062 21.976562 -6.644531 22.0625 -6.53125 C 22.144531 -6.425781 22.25 -6.300781 22.375 -6.15625 C 22.457031 -6.082031 22.53125 -6.007812 22.59375 -5.9375 C 22.664062 -5.863281 22.710938 -5.773438 22.734375 -5.671875 C 22.742188 -5.640625 22.75 -5.554688 22.75 -5.421875 C 22.71875 -5.203125 22.59375 -5.019531 22.375 -4.875 C 22.164062 -4.726562 21.84375 -4.609375 21.40625 -4.515625 L 15.71875 -3.328125 C 15.375 -3.253906 15.097656 -3.25 14.890625 -3.3125 C 14.679688 -3.382812 14.554688 -3.519531 14.515625 -3.71875 C 14.492188 -3.8125 14.5 -3.921875 14.53125 -4.046875 C 14.539062 -4.171875 14.582031 -4.285156 14.65625 -4.390625 C 14.726562 -4.503906 14.796875 -4.585938 14.859375 -4.640625 C 14.921875 -4.703125 14.96875 -4.75 15 -4.78125 C 15.226562 -4.988281 15.398438 -5.195312 15.515625 -5.40625 C 15.640625 -5.613281 15.722656 -5.921875 15.765625 -6.328125 L 16.234375 -13.25 L 11.578125 -4.15625 C 11.203125 -3.414062 10.878906 -2.894531 10.609375 -2.59375 C 10.347656 -2.289062 10.015625 -2.097656 9.609375 -2.015625 C 9.210938 -1.929688 8.878906 -1.988281 8.609375 -2.1875 C 8.335938 -2.394531 8.054688 -2.785156 7.765625 -3.359375 L 3.90625 -10.359375 L 3.421875 -3.703125 C 3.410156 -3.484375 3.425781 -3.273438 3.46875 -3.078125 C 3.507812 -2.878906 3.566406 -2.722656 3.640625 -2.609375 C 3.722656 -2.492188 3.835938 -2.375 3.984375 -2.25 C 4.171875 -2.070312 4.28125 -1.921875 4.3125 -1.796875 C 4.3125 -1.753906 4.3125 -1.664062 4.3125 -1.53125 C 4.300781 -1.289062 4.1875 -1.101562 3.96875 -0.96875 C 3.757812 -0.832031 3.429688 -0.71875 2.984375 -0.625 L 0.96875 -0.203125 C 0.625 -0.128906 0.347656 -0.128906 0.140625 -0.203125 C -0.0664062 -0.285156 -0.1875 -0.421875 -0.21875 -0.609375 C -0.238281 -0.710938 -0.242188 -0.828125 -0.234375 -0.953125 C -0.191406 -1.128906 -0.113281 -1.28125 0 -1.40625 C 0.125 -1.539062 0.195312 -1.617188 0.21875 -1.640625 C 0.457031 -1.867188 0.640625 -2.082031 0.765625 -2.28125 C 0.890625 -2.476562 0.972656 -2.785156 1.015625 -3.203125 L 1.765625 -14.28125 L 1.109375 -15.5 C 0.972656 -15.71875 0.882812 -15.941406 0.84375 -16.171875 C 0.78125 -16.460938 0.828125 -16.691406 0.984375 -16.859375 C 1.140625 -17.035156 1.410156 -17.164062 1.796875 -17.25 L 5.5625 -18.03125 C 6.050781 -18.132812 6.4375 -18.101562 6.71875 -17.9375 C 7 -17.769531 7.257812 -17.445312 7.5 -16.96875 L 11.625 -9.4375 L 16.484375 -18.96875 C 16.796875 -19.570312 17.132812 -20 17.5 -20.25 C 17.863281 -20.507812 18.378906 -20.710938 19.046875 -20.859375 Z M 22.65625 -21.609375 "/></g></g></g><g fill="#000000" fill-opacity="1"><g transform="translate(265.615612, 220.364156)"><g><path d="M 8.375 -19.5 C 10.050781 -19.976562 11.453125 -19.984375 12.578125 -19.515625 C 13.703125 -19.046875 14.429688 -18.207031 14.765625 -17 C 14.898438 -16.519531 14.96875 -16 14.96875 -15.4375 C 14.988281 -13.71875 14.445312 -12.289062 13.34375 -11.15625 C 12.25 -10.03125 10.695312 -9.179688 8.6875 -8.609375 L 6.234375 -7.921875 L 6.234375 -4.796875 C 6.234375 -4.691406 6.253906 -4.5625 6.296875 -4.40625 C 6.359375 -4.1875 6.460938 -4.019531 6.609375 -3.90625 C 6.753906 -3.789062 6.957031 -3.671875 7.21875 -3.546875 C 7.425781 -3.421875 7.578125 -3.328125 7.671875 -3.265625 C 7.765625 -3.210938 7.828125 -3.128906 7.859375 -3.015625 C 7.929688 -2.742188 7.851562 -2.515625 7.625 -2.328125 C 7.40625 -2.148438 7.050781 -1.992188 6.5625 -1.859375 L 0.578125 -0.15625 C 0.160156 -0.0390625 -0.164062 -0.03125 -0.40625 -0.125 C -0.65625 -0.21875 -0.789062 -0.410156 -0.8125 -0.703125 C -0.820312 -0.835938 -0.789062 -0.960938 -0.71875 -1.078125 C -0.65625 -1.203125 -0.554688 -1.34375 -0.421875 -1.5 C -0.203125 -1.738281 -0.0351562 -1.96875 0.078125 -2.1875 C 0.191406 -2.40625 0.238281 -2.707031 0.21875 -3.09375 L 0.234375 -14.203125 C 0.242188 -14.421875 0.222656 -14.628906 0.171875 -14.828125 C 0.117188 -15.003906 0.046875 -15.144531 -0.046875 -15.25 C -0.140625 -15.351562 -0.253906 -15.46875 -0.390625 -15.59375 C -0.597656 -15.757812 -0.71875 -15.90625 -0.75 -16.03125 C -0.769531 -16.082031 -0.78125 -16.175781 -0.78125 -16.3125 C -0.769531 -16.539062 -0.671875 -16.722656 -0.484375 -16.859375 C -0.296875 -17.003906 0.0234375 -17.144531 0.484375 -17.28125 Z M 9.1875 -14.25 C 9.195312 -14.894531 9.140625 -15.441406 9.015625 -15.890625 C 8.742188 -16.816406 8.175781 -17.160156 7.3125 -16.921875 L 6.25 -16.609375 L 6.21875 -10.234375 L 7.265625 -10.53125 C 7.941406 -10.71875 8.429688 -11.082031 8.734375 -11.625 C 9.035156 -12.164062 9.1875 -13.039062 9.1875 -14.25 Z M 9.1875 -14.25 "/></g></g></g><g fill="#000000" fill-opacity="1"><g transform="translate(282.227679, 215.666197)"><g><path d="M 13.359375 -7.6875 C 13.378906 -7.46875 13.425781 -7.253906 13.5 -7.046875 C 13.550781 -6.867188 13.617188 -6.726562 13.703125 -6.625 C 13.785156 -6.53125 13.867188 -6.453125 13.953125 -6.390625 C 14.035156 -6.335938 14.09375 -6.300781 14.125 -6.28125 C 14.332031 -6.175781 14.460938 -6.050781 14.515625 -5.90625 C 14.523438 -5.863281 14.535156 -5.78125 14.546875 -5.65625 C 14.546875 -5.40625 14.457031 -5.203125 14.28125 -5.046875 C 14.101562 -4.890625 13.796875 -4.738281 13.359375 -4.59375 L 7.796875 -2.671875 C 7.472656 -2.566406 7.203125 -2.535156 6.984375 -2.578125 C 6.765625 -2.628906 6.625 -2.75 6.5625 -2.9375 C 6.519531 -3.03125 6.507812 -3.140625 6.53125 -3.265625 C 6.539062 -3.410156 6.570312 -3.53125 6.625 -3.625 C 6.6875 -3.71875 6.78125 -3.84375 6.90625 -4 C 7.101562 -4.226562 7.25 -4.453125 7.34375 -4.671875 C 7.445312 -4.890625 7.484375 -5.21875 7.453125 -5.65625 L 7.390625 -7.875 L 3.71875 -6.625 L 3.546875 -5.0625 C 3.472656 -4.394531 3.492188 -3.894531 3.609375 -3.5625 C 3.671875 -3.375 3.753906 -3.234375 3.859375 -3.140625 C 3.960938 -3.046875 4.101562 -2.960938 4.28125 -2.890625 C 4.425781 -2.796875 4.535156 -2.710938 4.609375 -2.640625 C 4.679688 -2.578125 4.726562 -2.46875 4.75 -2.3125 C 4.75 -2.050781 4.664062 -1.84375 4.5 -1.6875 C 4.34375 -1.539062 4.054688 -1.394531 3.640625 -1.25 L 0.140625 -0.046875 C -0.222656 0.078125 -0.519531 0.101562 -0.75 0.03125 C -0.976562 -0.0390625 -1.128906 -0.179688 -1.203125 -0.390625 C -1.285156 -0.648438 -1.265625 -0.882812 -1.140625 -1.09375 C -1.015625 -1.300781 -0.800781 -1.550781 -0.5 -1.84375 C -0.101562 -2.238281 0.191406 -2.597656 0.390625 -2.921875 C 0.597656 -3.253906 0.726562 -3.648438 0.78125 -4.109375 L 1.984375 -14.203125 C 2.171875 -15.765625 2.59375 -16.992188 3.25 -17.890625 C 3.90625 -18.796875 4.945312 -19.492188 6.375 -19.984375 C 7.96875 -20.535156 9.3125 -20.632812 10.40625 -20.28125 C 11.5 -19.925781 12.242188 -19.171875 12.640625 -18.015625 C 12.804688 -17.535156 12.898438 -17.007812 12.921875 -16.4375 Z M 7.265625 -10.46875 L 7.109375 -15.015625 C 7.109375 -15.222656 7.070312 -15.429688 7 -15.640625 C 6.894531 -15.929688 6.734375 -16.117188 6.515625 -16.203125 C 6.296875 -16.296875 6.039062 -16.289062 5.75 -16.1875 C 5.375 -16.0625 5.09375 -15.847656 4.90625 -15.546875 C 4.71875 -15.242188 4.582031 -14.765625 4.5 -14.109375 L 3.984375 -9.34375 Z M 7.265625 -10.46875 "/></g></g></g><g fill="#000000" fill-opacity="1"><g transform="translate(298.917979, 209.9351)"><g><path d="M 11.625 -22.578125 C 12.257812 -22.835938 12.65625 -22.769531 12.8125 -22.375 C 12.851562 -22.257812 12.878906 -22.175781 12.890625 -22.125 C 12.898438 -21.945312 12.875 -21.796875 12.8125 -21.671875 C 12.757812 -21.554688 12.675781 -21.414062 12.5625 -21.25 C 12.382812 -21.007812 12.25 -20.773438 12.15625 -20.546875 C 12.070312 -20.328125 12.050781 -20.007812 12.09375 -19.59375 L 13.40625 -8.265625 C 13.519531 -7.242188 13.457031 -6.46875 13.21875 -5.9375 C 12.976562 -5.40625 12.507812 -5 11.8125 -4.71875 C 11.207031 -4.46875 10.628906 -4.441406 10.078125 -4.640625 C 9.523438 -4.835938 8.921875 -5.238281 8.265625 -5.84375 L 1.828125 -11.71875 L 2.640625 -4.234375 C 2.671875 -4.023438 2.71875 -3.84375 2.78125 -3.6875 C 2.863281 -3.476562 2.960938 -3.320312 3.078125 -3.21875 C 3.203125 -3.113281 3.351562 -3.019531 3.53125 -2.9375 C 3.78125 -2.8125 3.9375 -2.679688 4 -2.546875 C 4.03125 -2.453125 4.050781 -2.378906 4.0625 -2.328125 C 4.082031 -2.085938 4.003906 -1.878906 3.828125 -1.703125 C 3.648438 -1.535156 3.34375 -1.363281 2.90625 -1.1875 L 0.421875 -0.171875 C -0.203125 0.0859375 -0.597656 0.0195312 -0.765625 -0.375 C -0.804688 -0.476562 -0.832031 -0.5625 -0.84375 -0.625 C -0.863281 -0.800781 -0.84375 -0.945312 -0.78125 -1.0625 C -0.71875 -1.175781 -0.628906 -1.320312 -0.515625 -1.5 C -0.335938 -1.726562 -0.207031 -1.957031 -0.125 -2.1875 C -0.0390625 -2.425781 -0.015625 -2.742188 -0.046875 -3.140625 L -1.34375 -14.625 L -2.015625 -15.234375 C -2.296875 -15.472656 -2.484375 -15.707031 -2.578125 -15.9375 C -2.765625 -16.414062 -2.550781 -16.78125 -1.9375 -17.03125 L 1.453125 -18.421875 C 1.941406 -18.617188 2.351562 -18.65625 2.6875 -18.53125 C 3.03125 -18.414062 3.46875 -18.132812 4 -17.6875 L 10.078125 -12.34375 L 9.40625 -18.5 C 9.363281 -18.738281 9.3125 -18.929688 9.25 -19.078125 C 9.175781 -19.265625 9.078125 -19.410156 8.953125 -19.515625 C 8.835938 -19.617188 8.6875 -19.710938 8.5 -19.796875 C 8.25 -19.929688 8.097656 -20.066406 8.046875 -20.203125 C 8.003906 -20.296875 7.976562 -20.367188 7.96875 -20.421875 C 7.957031 -20.660156 8.039062 -20.863281 8.21875 -21.03125 C 8.394531 -21.207031 8.703125 -21.382812 9.140625 -21.5625 Z M 11.625 -22.578125 "/></g></g></g><g fill="#000000" fill-opacity="1"><g transform="translate(315.94605, 202.991462)"><g><path d="M 10.625 -23.546875 C 11.269531 -23.859375 11.898438 -23.898438 12.515625 -23.671875 C 13.140625 -23.453125 13.613281 -23.015625 13.9375 -22.359375 C 13.976562 -22.273438 14.039062 -22.101562 14.125 -21.84375 C 14.351562 -21.070312 14.332031 -20.40625 14.0625 -19.84375 C 13.789062 -19.289062 13.363281 -18.875 12.78125 -18.59375 C 12.394531 -18.414062 12.035156 -18.320312 11.703125 -18.3125 C 11.378906 -18.300781 11.023438 -18.378906 10.640625 -18.546875 L 9.28125 -11.96875 L 9.921875 -8.015625 C 9.929688 -7.910156 9.972656 -7.785156 10.046875 -7.640625 C 10.140625 -7.429688 10.273438 -7.28125 10.453125 -7.1875 C 10.628906 -7.09375 10.847656 -7.015625 11.109375 -6.953125 C 11.359375 -6.867188 11.546875 -6.796875 11.671875 -6.734375 C 11.796875 -6.671875 11.867188 -6.5625 11.890625 -6.40625 C 11.921875 -6.15625 11.835938 -5.9375 11.640625 -5.75 C 11.453125 -5.5625 11.15625 -5.367188 10.75 -5.171875 L 5.140625 -2.46875 C 4.753906 -2.289062 4.429688 -2.222656 4.171875 -2.265625 C 3.921875 -2.316406 3.757812 -2.484375 3.6875 -2.765625 C 3.65625 -2.910156 3.660156 -3.046875 3.703125 -3.171875 C 3.742188 -3.296875 3.828125 -3.460938 3.953125 -3.671875 C 4.117188 -3.921875 4.234375 -4.160156 4.296875 -4.390625 C 4.359375 -4.628906 4.363281 -4.9375 4.3125 -5.3125 L 3.65625 -9.296875 L -1.203125 -14.171875 C -1.554688 -14.523438 -1.890625 -14.765625 -2.203125 -14.890625 C -2.515625 -15.023438 -2.859375 -15.140625 -3.234375 -15.234375 C -3.460938 -15.285156 -3.632812 -15.335938 -3.75 -15.390625 C -3.863281 -15.441406 -3.945312 -15.523438 -4 -15.640625 C -4.09375 -15.816406 -4.085938 -16 -3.984375 -16.1875 C -3.878906 -16.375 -3.679688 -16.539062 -3.390625 -16.6875 L 2.578125 -19.5625 C 3.097656 -19.8125 3.472656 -19.9375 3.703125 -19.9375 C 3.941406 -19.9375 4.128906 -19.832031 4.265625 -19.625 C 4.328125 -19.488281 4.347656 -19.359375 4.328125 -19.234375 C 4.304688 -19.109375 4.269531 -18.945312 4.21875 -18.75 C 4.175781 -18.5 4.148438 -18.300781 4.140625 -18.15625 C 4.128906 -18.019531 4.160156 -17.875 4.234375 -17.71875 C 4.253906 -17.664062 4.316406 -17.570312 4.421875 -17.4375 L 7.34375 -14 L 8.234375 -19.40625 C 8.421875 -20.570312 8.695312 -21.472656 9.0625 -22.109375 C 9.425781 -22.742188 9.945312 -23.222656 10.625 -23.546875 Z M 10.625 -23.546875 "/></g></g></g></svg>