<svg xmlns="http://www.w3.org/2000/svg" xmlns:xlink="http://www.w3.org/1999/xlink" width="2000" zoomAndPan="magnify" viewBox="0 0 1500 749.999995" height="1000" preserveAspectRatio="xMidYMid meet" version="1.0"><defs><g/><clipPath id="12f6e9801f"><rect x="0" width="995" y="0" height="613"/></clipPath><clipPath id="6bf951ac6c"><rect x="0" width="995" y="0" height="613"/></clipPath><clipPath id="d43322aa84"><rect x="0" width="1500" y="0" height="356"/></clipPath></defs><g transform="matrix(1, 0, 0, 1, 257, -0.000000000000042435)"><g clip-path="url(#12f6e9801f)"><g fill="#000000" fill-opacity="1"><g transform="translate(0.512551, 416.48388)"><g><path d="M 127.929688 5.160156 C 108.191406 5.160156 90.28125 0.808594 74.195312 -7.898438 C 58.054688 -16.636719 45.253906 -29.507812 35.789062 -46.511719 C 26.355469 -63.464844 21.636719 -83.691406 21.636719 -107.1875 C 21.636719 -124.996094 24.695312 -144.820312 30.808594 -166.65625 C 44.238281 -213.371094 65.402344 -246.410156 94.304688 -265.773438 C 123.117188 -285.082031 153.917969 -294.734375 186.710938 -294.734375 C 216.757812 -294.734375 243.839844 -283.851562 267.957031 -262.089844 L 266.234375 -260.183594 L 264.453125 -262.03125 L 277.480469 -274.625 L 277.550781 -274.683594 C 284.9375 -280.890625 291.335938 -285.195312 296.742188 -287.597656 C 302.261719 -290.050781 308.660156 -291.277344 315.9375 -291.277344 C 324.019531 -291.277344 330.597656 -289.292969 335.671875 -285.332031 C 340.9375 -281.214844 343.574219 -275.714844 343.574219 -268.828125 C 343.574219 -266.292969 343.109375 -263.332031 342.1875 -259.941406 L 326.609375 -205.425781 L 326.601562 -205.394531 C 323.589844 -195.753906 319.980469 -188.910156 315.773438 -184.863281 C 311.386719 -180.636719 305.535156 -178.523438 298.21875 -178.523438 C 290.796875 -178.523438 284.207031 -180.390625 278.453125 -184.125 C 272.878906 -187.742188 266.542969 -194.128906 259.453125 -203.292969 C 250.378906 -215.199219 242.417969 -223.597656 235.570312 -228.488281 C 228.957031 -233.214844 221.746094 -235.574219 213.9375 -235.574219 C 201.742188 -235.574219 190.0625 -229.308594 178.902344 -216.769531 C 167.496094 -203.953125 157.523438 -182.464844 148.984375 -152.300781 C 143.574219 -132.652344 140.871094 -115.742188 140.871094 -101.566406 C 140.871094 -86.863281 143.65625 -75.777344 149.222656 -68.308594 C 154.617188 -61.074219 162.214844 -57.457031 172.015625 -57.457031 C 180.601562 -57.457031 187.175781 -59.410156 191.738281 -63.320312 C 196.382812 -67.300781 200.074219 -74.363281 202.816406 -84.515625 L 205.847656 -95.34375 L 208.320312 -94.652344 L 205.832031 -95.273438 C 207.21875 -100.832031 207.914062 -104.515625 207.914062 -106.320312 C 207.914062 -109.023438 207.402344 -110.839844 206.378906 -111.769531 C 204.988281 -113.03125 202.539062 -114.472656 199.035156 -116.09375 L 200.109375 -118.421875 L 199.214844 -116.015625 L 184.089844 -121.636719 C 176.34375 -124.664062 172.472656 -130.222656 172.472656 -138.304688 C 172.472656 -140.53125 172.644531 -142.324219 172.984375 -143.679688 L 173 -143.746094 L 173.019531 -143.8125 C 174.371094 -148.207031 176.855469 -151.433594 180.46875 -153.5 C 183.886719 -155.453125 188.992188 -156.429688 195.785156 -156.429688 L 326.320312 -156 C 337.535156 -156 343.140625 -152.117188 343.140625 -144.355469 C 343.140625 -142.992188 342.828125 -141.054688 342.199219 -138.546875 C 340.921875 -133.753906 338.824219 -129.898438 335.90625 -126.980469 C 333.132812 -124.207031 329.179688 -121.460938 324.054688 -118.746094 L 322.855469 -121.015625 L 324.136719 -118.792969 L 312.898438 -112.308594 C 310.257812 -110.726562 308.304688 -109.234375 307.03125 -107.835938 C 305.882812 -106.570312 305.070312 -104.992188 304.597656 -103.105469 L 304.589844 -103.0625 L 281.667969 -23.0625 C 278.640625 -13.0625 275.140625 -6.320312 271.171875 -2.828125 C 267.085938 0.769531 262.128906 2.566406 256.296875 2.566406 L 238.140625 2.566406 C 230.722656 2.566406 224.570312 0.988281 219.679688 -2.164062 C 214.714844 -5.367188 210.695312 -11.425781 207.621094 -20.339844 L 203.300781 -32.875 L 205.726562 -33.710938 L 207.675781 -32.042969 C 186.417969 -7.242188 159.835938 5.160156 127.929688 5.160156 Z M 127.929688 0.0273438 C 158.261719 0.0273438 183.546875 -11.777344 203.777344 -35.382812 L 206.695312 -38.785156 L 212.476562 -22.015625 C 215.164062 -14.21875 218.492188 -9.039062 222.460938 -6.480469 C 226.503906 -3.871094 231.730469 -2.566406 238.140625 -2.566406 L 256.296875 -2.566406 C 260.835938 -2.566406 264.664062 -3.9375 267.78125 -6.679688 C 271.015625 -9.527344 274 -15.460938 276.734375 -24.476562 L 299.640625 -104.433594 L 302.109375 -103.726562 L 299.617188 -104.351562 C 300.296875 -107.074219 301.503906 -109.386719 303.234375 -111.289062 C 304.84375 -113.0625 307.210938 -114.882812 310.332031 -116.757812 L 321.613281 -123.261719 L 321.652344 -123.285156 C 326.324219 -125.757812 329.863281 -128.199219 332.277344 -130.609375 C 334.542969 -132.878906 336.191406 -135.9375 337.21875 -139.792969 C 337.746094 -141.890625 338.007812 -143.414062 338.007812 -144.355469 C 338.007812 -148.695312 334.105469 -150.863281 326.304688 -150.863281 L 195.785156 -151.296875 C 189.902344 -151.296875 185.644531 -150.542969 183.015625 -149.042969 C 180.574219 -147.648438 178.878906 -145.402344 177.925781 -142.304688 L 175.472656 -143.058594 L 177.964844 -142.4375 C 177.726562 -141.488281 177.609375 -140.109375 177.609375 -138.304688 C 177.609375 -132.558594 180.363281 -128.605469 185.875 -126.449219 L 201.09375 -120.796875 L 201.183594 -120.753906 C 205.167969 -118.914062 208.050781 -117.1875 209.832031 -115.566406 C 211.976562 -113.617188 213.046875 -110.535156 213.046875 -106.320312 C 213.046875 -104.09375 212.304688 -99.996094 210.8125 -94.03125 L 210.800781 -93.996094 L 207.773438 -83.175781 C 204.753906 -72.007812 200.523438 -64.089844 195.082031 -59.421875 C 189.558594 -54.691406 181.871094 -52.324219 172.015625 -52.324219 C 160.496094 -52.324219 151.527344 -56.628906 145.105469 -65.242188 C 138.859375 -73.621094 135.738281 -85.726562 135.738281 -101.566406 C 135.738281 -116.207031 138.507812 -133.582031 144.046875 -153.699219 C 152.796875 -184.617188 163.136719 -206.78125 175.070312 -220.183594 C 187.25 -233.867188 200.207031 -240.710938 213.9375 -240.710938 C 222.84375 -240.710938 231.046875 -238.027344 238.554688 -232.667969 C 245.824219 -227.476562 254.140625 -218.730469 263.511719 -206.433594 C 270.25 -197.730469 276.160156 -191.730469 281.246094 -188.433594 C 286.152344 -185.25 291.808594 -183.660156 298.21875 -183.660156 C 304.15625 -183.660156 308.820312 -185.292969 312.214844 -188.558594 C 315.789062 -192 318.949219 -198.125 321.699219 -206.925781 L 324.152344 -206.160156 L 321.683594 -206.863281 L 337.234375 -261.292969 C 338.039062 -264.242188 338.4375 -266.753906 338.4375 -268.828125 C 338.4375 -274.046875 336.464844 -278.195312 332.511719 -281.285156 C 328.363281 -284.523438 322.839844 -286.144531 315.9375 -286.144531 C 309.386719 -286.144531 303.683594 -285.0625 298.828125 -282.90625 C 293.863281 -280.699219 287.871094 -276.648438 280.851562 -270.753906 L 279.203125 -272.71875 L 280.984375 -270.871094 L 266.296875 -256.671875 L 264.515625 -258.277344 C 241.378906 -279.160156 215.441406 -289.601562 186.710938 -289.601562 C 154.960938 -289.601562 125.109375 -280.238281 97.160156 -261.511719 C 69.300781 -242.839844 48.828125 -210.761719 35.75 -165.273438 C 29.765625 -143.890625 26.769531 -124.527344 26.769531 -107.1875 C 26.769531 -84.578125 31.273438 -65.1875 40.277344 -49.007812 C 49.253906 -32.875 61.375 -20.675781 76.640625 -12.414062 C 91.964844 -4.121094 109.058594 0.0273438 127.929688 0.0273438 Z M 127.929688 0.0273438 "/></g></g></g><g fill="#000000" fill-opacity="1"><g transform="translate(327.601557, 416.48388)"><g><path d="M 336.683594 -290.414062 C 350.210938 -290.414062 356.972656 -285.8125 356.972656 -276.609375 C 356.972656 -274.3125 356.785156 -272.601562 356.40625 -271.476562 L 353.972656 -272.285156 L 356.429688 -271.546875 C 355.429688 -268.214844 353.894531 -265.597656 351.816406 -263.695312 C 349.976562 -262.007812 347.410156 -260.117188 344.113281 -258.019531 L 344.085938 -258 L 344.054688 -257.984375 C 339.949219 -255.519531 336.542969 -252.796875 333.828125 -249.8125 C 331.207031 -246.929688 328.941406 -242.359375 327.039062 -236.097656 L 324.582031 -236.847656 L 327.054688 -236.15625 L 273.460938 -44.257812 C 268.433594 -26.507812 262.074219 -14.015625 254.378906 -6.773438 C 246.539062 0.605469 235.796875 4.296875 222.152344 4.296875 C 209.976562 4.296875 199.828125 0.695312 191.707031 -6.507812 C 183.808594 -13.511719 176.46875 -24.234375 169.691406 -38.671875 L 104.433594 -176.101562 L 106.753906 -177.203125 L 109.21875 -176.492188 L 72.914062 -50.289062 L 70.449219 -51 L 72.949219 -50.421875 C 72.128906 -46.867188 71.71875 -43.746094 71.71875 -41.058594 C 71.71875 -37.738281 72.269531 -35.042969 73.367188 -32.96875 C 74.566406 -30.699219 76.25 -28.347656 78.417969 -25.910156 L 78.4375 -25.886719 L 78.460938 -25.863281 C 82.035156 -21.636719 83.820312 -17.914062 83.820312 -14.695312 C 83.820312 -12.6875 83.632812 -11.121094 83.257812 -9.992188 L 80.820312 -10.804688 L 83.289062 -10.101562 C 81.90625 -5.253906 78.800781 -1.882812 73.980469 0.0117188 C 69.644531 1.714844 63.28125 2.566406 54.890625 2.566406 L 7.78125 2.566406 C -5.746094 2.566406 -12.507812 -2.035156 -12.507812 -11.238281 C -12.507812 -13.53125 -12.320312 -15.242188 -11.945312 -16.371094 L -9.507812 -15.558594 L -11.96875 -16.296875 C -10.96875 -19.628906 -9.429688 -22.246094 -7.351562 -24.152344 C -5.511719 -25.835938 -2.945312 -27.730469 0.351562 -29.828125 L 0.378906 -29.84375 L 0.40625 -29.863281 C 4.515625 -32.324219 7.921875 -35.046875 10.632812 -38.03125 C 13.257812 -40.917969 15.519531 -45.488281 17.425781 -51.746094 L 72.300781 -245.757812 L 74.769531 -245.058594 L 72.460938 -243.9375 L 65.546875 -258.199219 C 62.492188 -264.304688 60.964844 -269.722656 60.964844 -274.449219 C 60.964844 -279.753906 62.738281 -283.777344 66.28125 -286.523438 C 69.628906 -289.117188 74.472656 -290.414062 80.820312 -290.414062 L 144.789062 -290.414062 C 154.652344 -290.414062 162.203125 -288.109375 167.445312 -283.507812 C 172.441406 -279.113281 177.753906 -271.441406 183.375 -260.492188 L 246.492188 -133.832031 L 244.195312 -132.6875 L 241.726562 -133.390625 L 271.546875 -237.550781 L 274.015625 -236.847656 L 271.503906 -237.382812 C 272.332031 -241.242188 272.746094 -244.375 272.746094 -246.785156 C 272.746094 -250.105469 272.195312 -252.804688 271.097656 -254.878906 C 269.898438 -257.144531 268.214844 -259.496094 266.046875 -261.9375 L 266.023438 -261.960938 L 266.003906 -261.984375 C 262.429688 -266.207031 260.644531 -269.929688 260.644531 -273.152344 C 260.644531 -275.15625 260.832031 -276.722656 261.207031 -277.851562 L 263.640625 -277.039062 L 261.175781 -277.746094 C 262.558594 -282.59375 265.664062 -285.964844 270.484375 -287.859375 C 274.820312 -289.5625 281.183594 -290.414062 289.574219 -290.414062 Z M 336.683594 -285.277344 L 289.574219 -285.277344 C 281.832031 -285.277344 276.09375 -284.546875 272.359375 -283.078125 C 269.113281 -281.804688 267.03125 -279.554688 266.109375 -276.335938 L 266.09375 -276.28125 L 266.078125 -276.230469 C 265.878906 -275.628906 265.777344 -274.601562 265.777344 -273.152344 C 265.777344 -271.183594 267.160156 -268.566406 269.925781 -265.300781 L 267.964844 -263.640625 L 269.882812 -265.347656 C 272.324219 -262.601562 274.242188 -259.910156 275.636719 -257.28125 C 277.132812 -254.457031 277.878906 -250.957031 277.878906 -246.785156 C 277.878906 -244.011719 277.425781 -240.519531 276.523438 -236.308594 L 276.507812 -236.222656 L 244.84375 -125.628906 L 178.808594 -258.148438 C 173.484375 -268.519531 168.566406 -275.6875 164.054688 -279.652344 C 159.785156 -283.402344 153.363281 -285.277344 144.789062 -285.277344 L 80.820312 -285.277344 C 75.644531 -285.277344 71.847656 -284.339844 69.429688 -282.46875 C 67.210938 -280.746094 66.101562 -278.074219 66.101562 -274.449219 C 66.101562 -270.53125 67.457031 -265.859375 70.164062 -260.441406 L 77.507812 -245.300781 L 22.335938 -50.253906 C 20.207031 -43.257812 17.574219 -38.03125 14.433594 -34.578125 C 11.382812 -31.222656 7.585938 -28.183594 3.050781 -25.460938 L 1.730469 -27.660156 L 3.105469 -25.496094 C 0.0625 -23.558594 -2.265625 -21.847656 -3.882812 -20.367188 C -5.265625 -19.101562 -6.320312 -17.25 -7.050781 -14.820312 L -7.0625 -14.785156 L -7.074219 -14.746094 C -7.273438 -14.148438 -7.375 -12.976562 -7.375 -11.238281 C -7.375 -5.457031 -2.324219 -2.566406 7.78125 -2.566406 L 54.890625 -2.566406 C 62.632812 -2.566406 68.371094 -3.300781 72.101562 -4.765625 C 75.351562 -6.042969 77.433594 -8.289062 78.351562 -11.511719 L 78.367188 -11.5625 L 78.386719 -11.617188 C 78.585938 -12.21875 78.6875 -13.242188 78.6875 -14.695312 C 78.6875 -16.660156 77.304688 -19.277344 74.539062 -22.546875 L 76.5 -24.203125 L 74.582031 -22.496094 C 72.140625 -25.246094 70.222656 -27.933594 68.828125 -30.566406 C 67.332031 -33.390625 66.585938 -36.886719 66.585938 -41.058594 C 66.585938 -44.136719 67.039062 -47.640625 67.949219 -51.578125 L 67.960938 -51.644531 L 106.164062 -184.433594 L 174.339844 -40.851562 C 180.816406 -27.054688 187.742188 -16.886719 195.113281 -10.347656 C 202.261719 -4.007812 211.273438 -0.839844 222.152344 -0.839844 C 234.4375 -0.839844 244.007812 -4.0625 250.863281 -10.511719 C 257.863281 -17.105469 263.75 -28.8125 268.515625 -45.640625 L 322.117188 -237.566406 L 322.128906 -237.59375 C 324.257812 -244.589844 326.890625 -249.8125 330.03125 -253.265625 C 333.082031 -256.625 336.875 -259.664062 341.414062 -262.386719 L 342.734375 -260.183594 L 341.355469 -262.351562 C 344.398438 -264.285156 346.730469 -265.996094 348.347656 -267.480469 C 349.730469 -268.746094 350.785156 -270.59375 351.511719 -273.023438 L 351.523438 -273.0625 L 351.535156 -273.097656 C 351.738281 -273.699219 351.835938 -274.871094 351.835938 -276.609375 C 351.835938 -282.386719 346.785156 -285.277344 336.683594 -285.277344 Z M 336.683594 -285.277344 "/></g></g></g><g fill="#000000" fill-opacity="1"><g transform="translate(641.727984, 416.48388)"><g><path d="M 150.40625 5.160156 C 125.824219 5.160156 103.710938 0.613281 84.066406 -8.476562 C 64.316406 -17.613281 48.613281 -31.105469 36.964844 -48.949219 C 25.304688 -66.804688 19.476562 -88.378906 19.476562 -113.667969 C 19.476562 -131.207031 22.535156 -150.183594 28.660156 -170.59375 C 42.085938 -214.375 62.433594 -246.015625 89.703125 -265.515625 C 116.945312 -284.996094 146.109375 -294.734375 177.203125 -294.734375 C 193.945312 -294.734375 208.804688 -292.226562 221.78125 -287.214844 C 234.734375 -282.210938 246.65625 -275 257.542969 -265.582031 L 255.863281 -263.640625 L 254.285156 -265.667969 L 265.957031 -274.746094 C 273.90625 -280.929688 280.648438 -285.21875 286.179688 -287.609375 C 291.835938 -290.054688 298.152344 -291.277344 305.132812 -291.277344 C 312.898438 -291.277344 319.164062 -289.527344 323.941406 -286.027344 C 328.960938 -282.34375 331.472656 -277.042969 331.472656 -270.125 C 331.472656 -266.65625 330.84375 -263.191406 329.589844 -259.738281 L 305.390625 -192.328125 L 302.972656 -193.195312 L 305.40625 -192.382812 C 302.667969 -184.164062 299.324219 -178.316406 295.375 -174.84375 C 291.289062 -171.246094 285.320312 -169.449219 277.472656 -169.449219 C 269.214844 -169.449219 262.453125 -172.398438 257.1875 -178.304688 C 252.265625 -183.820312 246.726562 -193.175781 240.570312 -206.371094 L 242.898438 -207.457031 L 240.609375 -206.289062 C 233.816406 -219.589844 228.355469 -228.308594 224.226562 -232.4375 C 220.40625 -236.257812 214.671875 -238.167969 207.023438 -238.167969 C 196.066406 -238.167969 185.367188 -231.234375 174.929688 -217.367188 C 164.164062 -203.054688 154.355469 -181.492188 145.511719 -152.679688 C 138.097656 -128.433594 134.386719 -108.226562 134.386719 -92.058594 C 134.386719 -78.238281 136.945312 -68.027344 142.0625 -61.433594 C 147.023438 -55.035156 153.695312 -51.835938 162.074219 -51.835938 C 175.085938 -51.835938 185.765625 -54.710938 194.113281 -60.460938 C 202.730469 -66.394531 211.582031 -74.46875 220.664062 -84.6875 C 226.519531 -91.125 231.289062 -95.894531 234.980469 -98.996094 C 239.058594 -102.421875 243.425781 -104.132812 248.082031 -104.132812 C 253.925781 -104.132812 259.972656 -101.320312 266.222656 -95.695312 C 272.597656 -89.960938 275.617188 -84.089844 275.28125 -78.085938 L 272.71875 -78.226562 L 275.28125 -78.34375 C 275.601562 -71.367188 270.300781 -61 259.386719 -47.242188 C 248.660156 -33.726562 233.863281 -21.628906 214.988281 -10.949219 C 196.011719 -0.210938 174.484375 5.160156 150.40625 5.160156 Z M 150.40625 0.0273438 C 173.582031 0.0273438 194.265625 -5.121094 212.460938 -15.417969 C 230.753906 -25.769531 245.054688 -37.441406 255.363281 -50.433594 C 265.484375 -63.1875 270.414062 -72.414062 270.15625 -78.113281 L 270.148438 -78.242188 L 270.15625 -78.371094 C 270.398438 -82.738281 267.941406 -87.242188 262.789062 -91.878906 C 257.515625 -96.625 252.613281 -99 248.082031 -99 C 244.671875 -99 241.40625 -97.6875 238.28125 -95.0625 C 234.765625 -92.113281 230.175781 -87.515625 224.5 -81.277344 C 215.144531 -70.75 205.984375 -62.402344 197.027344 -56.234375 C 187.800781 -49.878906 176.148438 -46.703125 162.074219 -46.703125 C 152.015625 -46.703125 143.992188 -50.566406 138.003906 -58.285156 C 132.171875 -65.808594 129.253906 -77.066406 129.253906 -92.058594 C 129.253906 -108.738281 133.039062 -129.445312 140.605469 -154.183594 C 149.625 -183.574219 159.699219 -205.664062 170.828125 -220.453125 C 182.292969 -235.6875 194.355469 -243.300781 207.023438 -243.300781 C 216.089844 -243.300781 223.03125 -240.890625 227.855469 -236.066406 C 232.371094 -231.554688 238.144531 -222.40625 245.183594 -208.625 L 245.203125 -208.582031 L 245.222656 -208.542969 C 251.167969 -195.804688 256.433594 -186.863281 261.019531 -181.71875 C 265.265625 -176.960938 270.75 -174.582031 277.472656 -174.582031 C 284.03125 -174.582031 288.867188 -175.953125 291.984375 -178.695312 C 295.238281 -181.5625 298.089844 -186.664062 300.539062 -194.003906 L 300.546875 -194.035156 L 324.761719 -261.496094 C 325.8125 -264.378906 326.335938 -267.257812 326.335938 -270.125 C 326.335938 -275.308594 324.527344 -279.230469 320.902344 -281.886719 C 317.035156 -284.722656 311.777344 -286.144531 305.132812 -286.144531 C 298.859375 -286.144531 293.222656 -285.0625 288.214844 -282.894531 C 283.085938 -280.675781 276.714844 -276.609375 269.109375 -270.691406 L 255.777344 -260.324219 L 254.183594 -261.699219 C 243.746094 -270.726562 232.328125 -277.636719 219.929688 -282.425781 C 207.550781 -287.210938 193.308594 -289.601562 177.203125 -289.601562 C 147.210938 -289.601562 119.039062 -280.179688 92.6875 -261.339844 C 66.363281 -242.515625 46.660156 -211.773438 33.578125 -169.117188 C 27.597656 -149.1875 24.609375 -130.707031 24.609375 -113.667969 C 24.609375 -89.398438 30.160156 -68.761719 41.261719 -51.753906 C 52.375 -34.734375 67.363281 -21.859375 86.222656 -13.132812 C 105.183594 -4.359375 126.578125 0.0273438 150.40625 0.0273438 Z M 150.40625 0.0273438 "/></g></g></g></g></g><g transform="matrix(1, 0, 0, 1, 279, -0.000000000000042435)"><g clip-path="url(#6bf951ac6c)"><g fill="#313552" fill-opacity="1"><g transform="translate(0.692394, 416.48388)"><g><path d="M 127.9375 2.59375 C 108.625 2.59375 91.113281 -1.65625 75.40625 -10.15625 C 59.707031 -18.65625 47.25 -31.1875 38.03125 -47.75 C 28.8125 -64.320312 24.203125 -84.132812 24.203125 -107.1875 C 24.203125 -124.757812 27.226562 -144.351562 33.28125 -165.96875 C 46.53125 -212.070312 67.347656 -244.628906 95.734375 -263.640625 C 124.117188 -282.660156 154.445312 -292.171875 186.71875 -292.171875 C 216.101562 -292.171875 242.609375 -281.507812 266.234375 -260.1875 L 279.203125 -272.71875 C 286.410156 -278.769531 292.601562 -282.945312 297.78125 -285.25 C 302.96875 -287.5625 309.019531 -288.71875 315.9375 -288.71875 C 323.425781 -288.71875 329.476562 -286.914062 334.09375 -283.3125 C 338.707031 -279.707031 341.015625 -274.878906 341.015625 -268.828125 C 341.015625 -266.523438 340.582031 -263.789062 339.71875 -260.625 L 324.15625 -206.15625 C 321.269531 -196.9375 317.878906 -190.453125 313.984375 -186.703125 C 310.097656 -182.960938 304.84375 -181.09375 298.21875 -181.09375 C 291.300781 -181.09375 285.175781 -182.820312 279.84375 -186.28125 C 274.519531 -189.738281 268.398438 -195.929688 261.484375 -204.859375 C 252.265625 -216.960938 244.125 -225.535156 237.0625 -230.578125 C 230 -235.617188 222.289062 -238.140625 213.9375 -238.140625 C 200.96875 -238.140625 188.648438 -231.582031 176.984375 -218.46875 C 165.316406 -205.363281 155.160156 -183.539062 146.515625 -153 C 141.046875 -133.113281 138.3125 -115.96875 138.3125 -101.5625 C 138.3125 -86.289062 141.265625 -74.691406 147.171875 -66.765625 C 153.078125 -58.847656 161.359375 -54.890625 172.015625 -54.890625 C 181.234375 -54.890625 188.363281 -57.050781 193.40625 -61.375 C 198.445312 -65.695312 202.410156 -73.1875 205.296875 -83.84375 L 208.328125 -94.65625 C 209.765625 -100.414062 210.484375 -104.304688 210.484375 -106.328125 C 210.484375 -109.785156 209.691406 -112.234375 208.109375 -113.671875 C 206.523438 -115.109375 203.859375 -116.691406 200.109375 -118.421875 L 184.984375 -124.046875 C 178.359375 -126.640625 175.046875 -131.394531 175.046875 -138.3125 C 175.046875 -140.320312 175.1875 -141.90625 175.46875 -143.0625 C 176.625 -146.800781 178.710938 -149.535156 181.734375 -151.265625 C 184.765625 -152.992188 189.445312 -153.859375 195.78125 -153.859375 L 326.3125 -153.4375 C 335.820312 -153.4375 340.578125 -150.410156 340.578125 -144.359375 C 340.578125 -143.203125 340.289062 -141.472656 339.71875 -139.171875 C 338.5625 -134.847656 336.6875 -131.390625 334.09375 -128.796875 C 331.5 -126.203125 327.753906 -123.609375 322.859375 -121.015625 L 311.625 -114.53125 C 308.738281 -112.800781 306.570312 -111.144531 305.125 -109.5625 C 303.6875 -107.976562 302.679688 -106.035156 302.109375 -103.734375 L 279.203125 -23.765625 C 276.316406 -14.265625 273.070312 -7.925781 269.46875 -4.75 C 265.875 -1.582031 261.484375 0 256.296875 0 L 238.140625 0 C 231.222656 0 225.53125 -1.4375 221.0625 -4.3125 C 216.601562 -7.195312 212.929688 -12.816406 210.046875 -21.171875 L 205.734375 -33.71875 C 184.984375 -9.507812 159.050781 2.59375 127.9375 2.59375 Z M 127.9375 2.59375 "/></g></g></g><g fill="#313552" fill-opacity="1"><g transform="translate(327.781399, 416.48388)"><g><path d="M 336.6875 -287.84375 C 348.5 -287.84375 354.40625 -284.097656 354.40625 -276.609375 C 354.40625 -274.585938 354.257812 -273.144531 353.96875 -272.28125 C 353.101562 -269.40625 351.804688 -267.175781 350.078125 -265.59375 C 348.347656 -264.007812 345.898438 -262.207031 342.734375 -260.1875 C 338.410156 -257.59375 334.804688 -254.707031 331.921875 -251.53125 C 329.046875 -248.363281 326.597656 -243.46875 324.578125 -236.84375 L 270.984375 -44.953125 C 266.085938 -27.660156 259.960938 -15.554688 252.609375 -8.640625 C 245.265625 -1.722656 235.113281 1.734375 222.15625 1.734375 C 210.625 1.734375 201.039062 -1.648438 193.40625 -8.421875 C 185.769531 -15.191406 178.640625 -25.640625 172.015625 -39.765625 L 106.75 -177.203125 L 70.453125 -51 C 69.585938 -47.25 69.15625 -43.9375 69.15625 -41.0625 C 69.15625 -37.3125 69.800781 -34.210938 71.09375 -31.765625 C 72.394531 -29.316406 74.195312 -26.796875 76.5 -24.203125 C 79.664062 -20.453125 81.25 -17.28125 81.25 -14.6875 C 81.25 -12.96875 81.109375 -11.675781 80.828125 -10.8125 C 79.671875 -6.769531 77.070312 -3.957031 73.03125 -2.375 C 69 -0.789062 62.953125 0 54.890625 0 L 7.78125 0 C -4.03125 0 -9.9375 -3.742188 -9.9375 -11.234375 C -9.9375 -13.253906 -9.796875 -14.695312 -9.515625 -15.5625 C -8.648438 -18.4375 -7.351562 -20.664062 -5.625 -22.25 C -3.894531 -23.84375 -1.441406 -25.644531 1.734375 -27.65625 C 6.054688 -30.25 9.65625 -33.128906 12.53125 -36.296875 C 15.414062 -39.472656 17.863281 -44.375 19.875 -51 L 74.765625 -245.0625 L 67.859375 -259.328125 C 64.972656 -265.085938 63.53125 -270.128906 63.53125 -274.453125 C 63.53125 -283.378906 69.296875 -287.84375 80.828125 -287.84375 L 144.78125 -287.84375 C 154.007812 -287.84375 161 -285.753906 165.75 -281.578125 C 170.5 -277.398438 175.613281 -269.984375 181.09375 -259.328125 L 244.1875 -132.6875 L 274.015625 -236.84375 C 274.878906 -240.875 275.3125 -244.1875 275.3125 -246.78125 C 275.3125 -250.53125 274.660156 -253.628906 273.359375 -256.078125 C 272.066406 -258.523438 270.269531 -261.046875 267.96875 -263.640625 C 264.800781 -267.390625 263.21875 -270.5625 263.21875 -273.15625 C 263.21875 -274.882812 263.359375 -276.179688 263.640625 -277.046875 C 264.796875 -281.078125 267.390625 -283.882812 271.421875 -285.46875 C 275.453125 -287.050781 281.503906 -287.84375 289.578125 -287.84375 Z M 336.6875 -287.84375 "/></g></g></g><g fill="#313552" fill-opacity="1"><g transform="translate(641.907826, 416.48388)"><g><path d="M 150.40625 2.59375 C 126.207031 2.59375 104.453125 -1.867188 85.140625 -10.796875 C 65.835938 -19.734375 50.492188 -32.914062 39.109375 -50.34375 C 27.734375 -67.78125 22.046875 -88.890625 22.046875 -113.671875 C 22.046875 -130.960938 25.070312 -149.691406 31.125 -169.859375 C 44.375 -213.078125 64.394531 -244.265625 91.1875 -263.421875 C 117.988281 -282.585938 146.660156 -292.171875 177.203125 -292.171875 C 193.628906 -292.171875 208.179688 -289.71875 220.859375 -284.8125 C 233.535156 -279.914062 245.203125 -272.859375 255.859375 -263.640625 L 267.53125 -272.71875 C 275.3125 -278.769531 281.863281 -282.945312 287.1875 -285.25 C 292.519531 -287.5625 298.503906 -288.71875 305.140625 -288.71875 C 312.335938 -288.71875 318.097656 -287.128906 322.421875 -283.953125 C 326.742188 -280.785156 328.90625 -276.175781 328.90625 -270.125 C 328.90625 -266.957031 328.328125 -263.789062 327.171875 -260.625 L 302.96875 -193.1875 C 300.375 -185.414062 297.273438 -179.941406 293.671875 -176.765625 C 290.078125 -173.597656 284.675781 -172.015625 277.46875 -172.015625 C 269.976562 -172.015625 263.851562 -174.679688 259.09375 -180.015625 C 254.34375 -185.347656 248.941406 -194.492188 242.890625 -207.453125 C 235.984375 -220.992188 230.367188 -229.925781 226.046875 -234.25 C 221.722656 -238.570312 215.382812 -240.734375 207.03125 -240.734375 C 195.21875 -240.734375 183.832031 -233.457031 172.875 -218.90625 C 161.925781 -204.351562 151.988281 -182.53125 143.0625 -153.4375 C 135.570312 -128.9375 131.828125 -108.476562 131.828125 -92.0625 C 131.828125 -77.65625 134.5625 -66.921875 140.03125 -59.859375 C 145.507812 -52.796875 152.859375 -49.265625 162.078125 -49.265625 C 175.617188 -49.265625 186.78125 -52.289062 195.5625 -58.34375 C 204.351562 -64.394531 213.359375 -72.609375 222.578125 -82.984375 C 228.347656 -89.316406 233.03125 -93.992188 236.625 -97.015625 C 240.226562 -100.046875 244.046875 -101.5625 248.078125 -101.5625 C 253.265625 -101.5625 258.738281 -98.96875 264.5 -93.78125 C 270.269531 -88.601562 273.007812 -83.421875 272.71875 -78.234375 C 273.007812 -71.890625 267.894531 -62.085938 257.375 -48.828125 C 246.851562 -35.578125 232.300781 -23.691406 213.71875 -13.171875 C 195.132812 -2.660156 174.03125 2.59375 150.40625 2.59375 Z M 150.40625 2.59375 "/></g></g></g></g></g><g transform="matrix(1, 0, 0, 1, 0, 324)"><g clip-path="url(#d43322aa84)"><g fill="#313552" fill-opacity="1"><g transform="translate(18.736788, 118.784426)"><g><path d="M 32.828125 16.6875 C 27.835938 14.269531 23.835938 10.976562 20.828125 6.8125 C 17.816406 2.644531 16.15625 -2.160156 15.84375 -7.609375 C 15.53125 -13.066406 16.816406 -18.78125 19.703125 -24.75 C 21.898438 -29.3125 25.132812 -34.015625 29.40625 -38.859375 C 38.613281 -49.148438 48.082031 -54.984375 57.8125 -56.359375 C 67.550781 -57.742188 76.609375 -56.414062 84.984375 -52.375 C 92.609375 -48.695312 98.148438 -42.613281 101.609375 -34.125 L 106.53125 -35.75 C 109.15625 -36.414062 111.285156 -36.722656 112.921875 -36.671875 C 114.554688 -36.617188 116.269531 -36.160156 118.0625 -35.296875 C 120 -34.359375 121.34375 -33.132812 122.09375 -31.625 C 122.84375 -30.113281 122.835938 -28.578125 122.078125 -27.015625 C 121.785156 -26.410156 121.328125 -25.75 120.703125 -25.03125 L 109.859375 -12.875 C 107.953125 -10.84375 106.257812 -9.582031 104.78125 -9.09375 C 103.300781 -8.613281 101.703125 -8.789062 99.984375 -9.625 C 98.191406 -10.488281 96.820312 -11.703125 95.875 -13.265625 C 94.925781 -14.828125 94.113281 -17.195312 93.4375 -20.375 C 92.5625 -24.664062 91.523438 -27.90625 90.328125 -30.09375 C 89.128906 -32.28125 87.445312 -33.898438 85.28125 -34.953125 C 81.914062 -36.578125 77.898438 -36.421875 73.234375 -34.484375 C 68.578125 -32.546875 63.210938 -28.160156 57.140625 -21.328125 C 53.222656 -16.859375 50.363281 -12.757812 48.5625 -9.03125 C 46.644531 -5.0625 45.957031 -1.679688 46.5 1.109375 C 47.050781 3.910156 48.710938 5.976562 51.484375 7.3125 C 53.867188 8.46875 55.984375 8.796875 57.828125 8.296875 C 59.679688 7.804688 61.648438 6.363281 63.734375 3.96875 L 65.859375 1.546875 C 66.941406 0.222656 67.613281 -0.695312 67.875 -1.21875 C 68.3125 -2.125 68.414062 -2.859375 68.1875 -3.421875 C 67.957031 -3.992188 67.460938 -4.738281 66.703125 -5.65625 L 63.5 -9.015625 C 62.09375 -10.503906 61.820312 -12.144531 62.6875 -13.9375 C 62.9375 -14.46875 63.171875 -14.863281 63.390625 -15.125 C 64.160156 -15.945312 65.046875 -16.394531 66.046875 -16.46875 C 67.054688 -16.539062 68.382812 -16.175781 70.03125 -15.375 L 103.8125 1.078125 C 106.28125 2.265625 107.140625 3.644531 106.390625 5.21875 C 106.242188 5.507812 105.945312 5.921875 105.5 6.453125 C 104.65625 7.421875 103.734375 8.078125 102.734375 8.421875 C 101.742188 8.773438 100.453125 8.984375 98.859375 9.046875 L 95.125 9.328125 C 94.164062 9.398438 93.398438 9.554688 92.828125 9.796875 C 92.253906 10.035156 91.75 10.414062 91.3125 10.9375 L 75.359375 28.796875 C 73.421875 30.890625 71.785156 32.125 70.453125 32.5 C 69.128906 32.875 67.796875 32.738281 66.453125 32.09375 L 61.734375 29.8125 C 59.941406 28.945312 58.644531 27.863281 57.84375 26.5625 C 57.050781 25.257812 56.8125 23.34375 57.125 20.8125 L 57.5625 17.015625 C 49.144531 20.691406 40.898438 20.582031 32.828125 16.6875 Z M 32.828125 16.6875 "/></g></g></g><g fill="#313552" fill-opacity="1"><g transform="translate(105.261687, 160.458452)"><g><path d="M 88.28125 -55.3125 C 97.945312 -51.332031 104.5625 -45.941406 108.125 -39.140625 C 111.695312 -32.347656 111.71875 -24.65625 108.1875 -16.0625 C 106.519531 -11.988281 104.109375 -7.867188 100.953125 -3.703125 C 95.117188 3.941406 88.550781 9.765625 81.25 13.765625 C 73.957031 17.765625 66.335938 19.925781 58.390625 20.25 C 50.453125 20.582031 42.570312 19.140625 34.75 15.921875 C 25.15625 11.972656 18.578125 6.597656 15.015625 -0.203125 C 11.453125 -7.015625 11.4375 -14.71875 14.96875 -23.3125 C 16.582031 -27.21875 19.082031 -31.4375 22.46875 -35.96875 C 28.195312 -43.5625 34.675781 -49.347656 41.90625 -53.328125 C 49.144531 -57.304688 56.707031 -59.441406 64.59375 -59.734375 C 72.476562 -60.035156 80.375 -58.5625 88.28125 -55.3125 Z M 81.5625 -44.890625 C 79.257812 -45.835938 76.8125 -45.769531 74.21875 -44.6875 C 71.625 -43.613281 68.5625 -41.351562 65.03125 -37.90625 C 61.507812 -34.46875 57.179688 -29.453125 52.046875 -22.859375 C 44.554688 -13.378906 39.976562 -6.609375 38.3125 -2.546875 C 37.332031 -0.160156 37.039062 1.738281 37.4375 3.15625 C 37.84375 4.582031 38.96875 5.671875 40.8125 6.421875 C 43.113281 7.367188 45.570312 7.28125 48.1875 6.15625 C 50.800781 5.039062 53.84375 2.773438 57.3125 -0.640625 C 60.78125 -4.066406 65.085938 -8.976562 70.234375 -15.375 C 77.566406 -24.738281 82.117188 -31.566406 83.890625 -35.859375 C 84.898438 -38.316406 85.207031 -40.253906 84.8125 -41.671875 C 84.414062 -43.097656 83.332031 -44.171875 81.5625 -44.890625 Z M 81.5625 -44.890625 "/></g></g></g><g fill="#313552" fill-opacity="1"><g transform="translate(191.308247, 195.78526)"><g><path d="M 84.859375 -60.40625 C 94.742188 -57.007812 101.671875 -52.019531 105.640625 -45.4375 C 109.609375 -38.851562 110.082031 -31.171875 107.0625 -22.390625 C 105.632812 -18.234375 103.46875 -13.972656 100.5625 -9.609375 C 95.175781 -1.640625 88.957031 4.550781 81.90625 8.96875 C 74.863281 13.394531 67.390625 16.003906 59.484375 16.796875 C 51.585938 17.585938 43.640625 16.609375 35.640625 13.859375 C 25.828125 10.472656 18.941406 5.488281 14.984375 -1.09375 C 11.023438 -7.675781 10.554688 -15.359375 13.578125 -24.140625 C 14.960938 -28.140625 17.207031 -32.5 20.3125 -37.21875 C 25.582031 -45.144531 31.710938 -51.300781 38.703125 -55.6875 C 45.703125 -60.082031 53.125 -62.660156 60.96875 -63.421875 C 68.820312 -64.191406 76.785156 -63.1875 84.859375 -60.40625 Z M 78.796875 -49.609375 C 76.441406 -50.421875 74 -50.207031 71.46875 -48.96875 C 68.9375 -47.738281 66.015625 -45.300781 62.703125 -41.65625 C 59.390625 -38.019531 55.363281 -32.753906 50.625 -25.859375 C 43.707031 -15.960938 39.53125 -8.9375 38.09375 -4.78125 C 37.257812 -2.34375 37.082031 -0.429688 37.5625 0.953125 C 38.039062 2.347656 39.222656 3.367188 41.109375 4.015625 C 43.460938 4.828125 45.910156 4.597656 48.453125 3.328125 C 51.003906 2.054688 53.910156 -0.390625 57.171875 -4.015625 C 60.429688 -7.640625 64.441406 -12.789062 69.203125 -19.46875 C 75.984375 -29.25 80.128906 -36.332031 81.640625 -40.71875 C 82.503906 -43.226562 82.695312 -45.179688 82.21875 -46.578125 C 81.738281 -47.972656 80.597656 -48.984375 78.796875 -49.609375 Z M 78.796875 -49.609375 "/></g></g></g><g fill="#313552" fill-opacity="1"><g transform="translate(279.311512, 226.083485)"><g><path d="M 79.625 -63.875 C 91.601562 -60.550781 99.992188 -55.742188 104.796875 -49.453125 C 109.597656 -43.171875 110.765625 -35.59375 108.296875 -26.71875 C 107.078125 -22.320312 104.875 -17.472656 101.6875 -12.171875 C 96.457031 -3.628906 90.847656 2.734375 84.859375 6.921875 C 78.878906 11.117188 71.882812 13.4375 63.875 13.875 C 55.875 14.320312 46.175781 12.921875 34.78125 9.671875 L 2.1875 0.46875 C 0.507812 0.0078125 -0.707031 -0.625 -1.46875 -1.4375 C -2.226562 -2.25 -2.472656 -3.132812 -2.203125 -4.09375 C -2.078125 -4.570312 -1.816406 -5.0625 -1.421875 -5.5625 C -0.984375 -6.21875 -0.5 -6.640625 0.03125 -6.828125 C 0.5625 -7.023438 1.34375 -7.285156 2.375 -7.609375 C 3.851562 -7.972656 5.09375 -8.488281 6.09375 -9.15625 C 7.101562 -9.820312 8.148438 -11.035156 9.234375 -12.796875 L 38.203125 -60.28125 C 38.816406 -61.226562 39.253906 -62.179688 39.515625 -63.140625 C 39.765625 -64.023438 39.832031 -64.800781 39.71875 -65.46875 C 39.601562 -66.144531 39.410156 -66.957031 39.140625 -67.90625 C 38.722656 -69.144531 38.601562 -70.078125 38.78125 -70.703125 C 38.84375 -70.953125 39.039062 -71.375 39.375 -71.96875 C 39.976562 -72.914062 40.878906 -73.457031 42.078125 -73.59375 C 43.273438 -73.738281 44.992188 -73.5 47.234375 -72.875 Z M 71.703125 -23.34375 C 75.878906 -30.28125 78.566406 -35.90625 79.765625 -40.21875 C 80.941406 -44.457031 80.867188 -47.617188 79.546875 -49.703125 C 78.222656 -51.785156 75.925781 -53.28125 72.65625 -54.1875 L 70.03125 -54.921875 L 37.65625 -1.171875 L 40.53125 -0.359375 C 44.207031 0.660156 47.519531 0.742188 50.46875 -0.109375 C 53.414062 -0.960938 56.550781 -3.191406 59.875 -6.796875 C 63.207031 -10.398438 67.148438 -15.914062 71.703125 -23.34375 Z M 71.703125 -23.34375 "/></g></g></g><g fill="#313552" fill-opacity="1"><g transform="translate(373.184101, 251.435377)"><g/></g></g><g fill="#313552" fill-opacity="1"><g transform="translate(398.39331, 257.999285)"><g><path d="M 111.15625 -62.515625 C 114.488281 -61.859375 115.945312 -60.472656 115.53125 -58.359375 C 115.414062 -57.785156 115.296875 -57.382812 115.171875 -57.15625 C 114.773438 -56.394531 114.285156 -55.835938 113.703125 -55.484375 C 113.128906 -55.128906 112.332031 -54.753906 111.3125 -54.359375 C 109.945312 -53.867188 108.769531 -53.253906 107.78125 -52.515625 C 106.789062 -51.785156 105.832031 -50.539062 104.90625 -48.78125 L 79.03125 2.4375 C 76.695312 7.039062 74.300781 10.113281 71.84375 11.65625 C 69.382812 13.195312 66.316406 13.601562 62.640625 12.875 C 59.390625 12.226562 56.875 10.738281 55.09375 8.40625 C 53.3125 6.070312 51.882812 2.722656 50.8125 -1.640625 L 40.046875 -44.09375 L 22.734375 -10.46875 C 22.285156 -9.457031 21.984375 -8.550781 21.828125 -7.75 C 21.617188 -6.6875 21.625 -5.769531 21.84375 -5 C 22.070312 -4.238281 22.441406 -3.429688 22.953125 -2.578125 C 23.640625 -1.335938 23.914062 -0.351562 23.78125 0.375 C 23.675781 0.863281 23.5625 1.226562 23.4375 1.46875 C 22.875 2.53125 21.976562 3.171875 20.75 3.390625 C 19.53125 3.617188 17.78125 3.507812 15.5 3.0625 L 2.1875 0.4375 C -1.144531 -0.21875 -2.601562 -1.601562 -2.1875 -3.71875 C -2.070312 -4.289062 -1.945312 -4.695312 -1.8125 -4.9375 C -1.40625 -5.6875 -0.914062 -6.238281 -0.34375 -6.59375 C 0.226562 -6.945312 1.019531 -7.320312 2.03125 -7.71875 C 3.394531 -8.207031 4.570312 -8.820312 5.5625 -9.5625 C 6.5625 -10.300781 7.523438 -11.546875 8.453125 -13.296875 L 34.796875 -65.046875 L 33.625 -69.453125 C 33.144531 -71.242188 33.023438 -72.75 33.265625 -73.96875 C 33.765625 -76.488281 35.640625 -77.425781 38.890625 -76.78125 L 56.953125 -73.21875 C 59.566406 -72.707031 61.425781 -71.726562 62.53125 -70.28125 C 63.644531 -68.84375 64.675781 -66.457031 65.625 -63.125 L 76.390625 -23.859375 L 90.609375 -51.609375 C 91.078125 -52.703125 91.382812 -53.613281 91.53125 -54.34375 C 91.738281 -55.40625 91.722656 -56.316406 91.484375 -57.078125 C 91.253906 -57.835938 90.890625 -58.648438 90.390625 -59.515625 C 89.703125 -60.753906 89.429688 -61.738281 89.578125 -62.46875 C 89.679688 -62.957031 89.796875 -63.316406 89.921875 -63.546875 C 90.472656 -64.609375 91.363281 -65.25 92.59375 -65.46875 C 93.820312 -65.695312 95.578125 -65.585938 97.859375 -65.140625 Z M 111.15625 -62.515625 "/></g></g></g><g fill="#313552" fill-opacity="1"><g transform="translate(488.856425, 275.715881)"><g><path d="M 91.953125 -70.828125 C 94.992188 -70.398438 97.265625 -69.410156 98.765625 -67.859375 C 100.265625 -66.304688 100.851562 -64.378906 100.53125 -62.078125 C 100.375 -60.941406 100.054688 -59.859375 99.578125 -58.828125 L 94.765625 -47.828125 C 93.878906 -45.671875 92.820312 -44.238281 91.59375 -43.53125 C 90.363281 -42.820312 88.722656 -42.613281 86.671875 -42.90625 C 84.703125 -43.175781 83.222656 -43.820312 82.234375 -44.84375 C 81.242188 -45.863281 80.597656 -47.40625 80.296875 -49.46875 L 79.3125 -56.765625 C 79.113281 -58.296875 78.757812 -59.34375 78.25 -59.90625 C 77.738281 -60.476562 76.660156 -60.878906 75.015625 -61.109375 L 62.078125 -62.921875 L 52.84375 -41.859375 L 58.265625 -41.109375 C 58.835938 -41.023438 59.675781 -41.328125 60.78125 -42.015625 L 65.5 -45.109375 C 66.882812 -46.015625 68.0625 -46.648438 69.03125 -47.015625 C 70 -47.390625 71.140625 -47.484375 72.453125 -47.296875 C 73.921875 -47.085938 75.078125 -46.523438 75.921875 -45.609375 C 76.765625 -44.691406 77.101562 -43.625 76.9375 -42.40625 C 76.882812 -42.070312 76.726562 -41.582031 76.46875 -40.9375 L 69.015625 -24.515625 C 68.265625 -22.785156 67.234375 -21.570312 65.921875 -20.875 C 64.617188 -20.175781 63.269531 -19.925781 61.875 -20.125 C 59.570312 -20.4375 58.015625 -21.867188 57.203125 -24.421875 L 55.6875 -29.03125 C 55.289062 -30.332031 54.476562 -31.070312 53.25 -31.25 L 48.4375 -31.921875 L 37.53125 -6.828125 L 48.359375 -5.3125 C 49.921875 -5.09375 51.335938 -5.203125 52.609375 -5.640625 C 53.890625 -6.085938 55.335938 -6.992188 56.953125 -8.359375 L 65.484375 -15.46875 C 66.992188 -16.675781 68.390625 -17.503906 69.671875 -17.953125 C 70.953125 -18.398438 72.453125 -18.503906 74.171875 -18.265625 C 75.992188 -18.015625 77.421875 -17.398438 78.453125 -16.421875 C 79.484375 -15.441406 79.878906 -14.128906 79.640625 -12.484375 C 79.554688 -11.828125 79.328125 -11.0625 78.953125 -10.1875 L 73.640625 1.75 C 72.296875 4.738281 70.675781 6.726562 68.78125 7.71875 C 66.882812 8.71875 64.289062 8.988281 61 8.53125 L 2.21875 0.3125 C 0.488281 0.0703125 -0.804688 -0.398438 -1.671875 -1.109375 C -2.535156 -1.816406 -2.894531 -2.664062 -2.75 -3.65625 C -2.6875 -4.15625 -2.488281 -4.671875 -2.15625 -5.203125 C -1.707031 -6.054688 -1.078125 -6.675781 -0.265625 -7.0625 C 0.535156 -7.457031 1.03125 -7.6875 1.21875 -7.75 C 2.632812 -8.375 3.816406 -9.0625 4.765625 -9.8125 C 5.710938 -10.570312 6.609375 -11.898438 7.453125 -13.796875 L 30.046875 -64.78125 C 30.523438 -65.800781 30.828125 -66.757812 30.953125 -67.65625 C 31.085938 -68.644531 31.054688 -69.488281 30.859375 -70.1875 C 30.660156 -70.882812 30.328125 -71.644531 29.859375 -72.46875 C 29.273438 -73.644531 29.03125 -74.5625 29.125 -75.21875 C 29.15625 -75.457031 29.296875 -75.894531 29.546875 -76.53125 C 30.023438 -77.550781 30.867188 -78.207031 32.078125 -78.5 C 33.296875 -78.789062 35.015625 -78.785156 37.234375 -78.484375 Z M 91.953125 -70.828125 "/></g></g></g><g fill="#313552" fill-opacity="1"><g transform="translate(573.69301, 288.580559)"><g><path d="M 160.515625 -60.4375 C 160.316406 -57.46875 159.441406 -54.929688 157.890625 -52.828125 C 156.347656 -50.722656 154.484375 -49.179688 152.296875 -48.203125 C 150.109375 -47.222656 148.019531 -46.800781 146.03125 -46.9375 C 144.125 -47.0625 142.351562 -47.65625 140.71875 -48.71875 C 139.082031 -49.789062 138.054688 -50.957031 137.640625 -52.21875 L 104.125 -3.8125 C 101.5625 -0.0820312 99.296875 2.523438 97.328125 4.015625 C 95.359375 5.515625 93.171875 6.179688 90.765625 6.015625 C 85.210938 5.648438 82.300781 1.882812 82.03125 -5.28125 L 80.484375 -42.046875 L 52.984375 -7.203125 C 49.796875 -3.179688 47.265625 -0.503906 45.390625 0.828125 C 43.523438 2.160156 41.429688 2.75 39.109375 2.59375 C 34.066406 2.257812 31.269531 -1.914062 30.71875 -9.9375 L 26.5 -66.578125 C 26.351562 -68.253906 25.957031 -69.613281 25.3125 -70.65625 C 24.675781 -71.695312 23.851562 -72.703125 22.84375 -73.671875 C 22.144531 -74.390625 21.644531 -74.988281 21.34375 -75.46875 C 21.039062 -75.945312 20.90625 -76.472656 20.9375 -77.046875 C 20.738281 -80.140625 22.664062 -81.550781 26.71875 -81.28125 L 57.640625 -79.234375 C 59.535156 -79.109375 60.929688 -78.617188 61.828125 -77.765625 C 62.734375 -76.921875 63.101562 -75.835938 62.9375 -74.515625 C 62.882812 -73.859375 62.648438 -73.226562 62.234375 -72.625 C 61.828125 -72.03125 61.398438 -71.492188 60.953125 -71.015625 C 59.972656 -70.097656 59.242188 -69.195312 58.765625 -68.3125 C 58.296875 -67.425781 58.09375 -66.226562 58.15625 -64.71875 L 59.421875 -34.609375 L 79.796875 -60.0625 L 79.625 -63.046875 C 79.5625 -64.640625 79.234375 -65.957031 78.640625 -67 C 78.046875 -68.039062 77.195312 -69.046875 76.09375 -70.015625 C 75.320312 -70.816406 74.785156 -71.457031 74.484375 -71.9375 C 74.179688 -72.414062 74.046875 -72.941406 74.078125 -73.515625 C 73.867188 -76.609375 75.796875 -78.019531 79.859375 -77.75 L 110.890625 -75.703125 C 112.804688 -75.566406 114.234375 -75.078125 115.171875 -74.234375 C 116.109375 -73.390625 116.492188 -72.300781 116.328125 -70.96875 C 116.253906 -69.894531 115.59375 -68.734375 114.34375 -67.484375 C 113.457031 -66.554688 112.773438 -65.648438 112.296875 -64.765625 C 111.816406 -63.878906 111.570312 -62.6875 111.5625 -61.1875 L 111.265625 -34.015625 L 129.953125 -62.21875 C 132.992188 -66.757812 135.859375 -69.875 138.546875 -71.5625 C 141.242188 -73.25 144.660156 -73.957031 148.796875 -73.6875 C 152.523438 -73.4375 155.472656 -72.117188 157.640625 -69.734375 C 159.816406 -67.347656 160.773438 -64.25 160.515625 -60.4375 Z M 160.515625 -60.4375 "/></g></g></g><g fill="#313552" fill-opacity="1"><g transform="translate(718.038952, 297.030337)"><g><path d="M 45.9375 -83.953125 C 50.582031 -83.992188 54.878906 -83.46875 58.828125 -82.375 C 62.773438 -81.28125 66.789062 -79.546875 70.875 -77.171875 L 73.734375 -79.546875 C 75.703125 -81.140625 77.328125 -82.226562 78.609375 -82.8125 C 79.898438 -83.40625 81.375 -83.710938 83.03125 -83.734375 C 85.019531 -83.742188 86.597656 -83.316406 87.765625 -82.453125 C 88.929688 -81.597656 89.519531 -80.335938 89.53125 -78.671875 C 89.53125 -78.015625 89.410156 -77.304688 89.171875 -76.546875 L 84.078125 -59.34375 C 83.503906 -57.351562 82.785156 -55.9375 81.921875 -55.09375 C 81.054688 -54.257812 79.75 -53.835938 78 -53.828125 C 76.175781 -53.816406 74.578125 -54.363281 73.203125 -55.46875 C 71.828125 -56.582031 69.675781 -58.867188 66.75 -62.328125 C 63.820312 -65.628906 61.171875 -67.953125 58.796875 -69.296875 C 56.421875 -70.648438 53.988281 -71.316406 51.5 -71.296875 C 49.675781 -71.285156 48.144531 -70.675781 46.90625 -69.46875 C 45.675781 -68.257812 45.066406 -66.78125 45.078125 -65.03125 C 45.097656 -63.039062 46.109375 -61.203125 48.109375 -59.515625 C 50.109375 -57.835938 53.234375 -55.726562 57.484375 -53.1875 C 61.804688 -50.644531 65.382812 -48.347656 68.21875 -46.296875 C 71.0625 -44.242188 73.488281 -41.6875 75.5 -38.625 C 77.519531 -35.5625 78.539062 -32.039062 78.5625 -28.0625 C 78.582031 -25.488281 78.191406 -22.914062 77.390625 -20.34375 C 75.429688 -13.6875 71.601562 -8.613281 65.90625 -5.125 C 60.207031 -1.644531 53.546875 0.117188 45.921875 0.171875 C 40.191406 0.210938 35.375 -0.414062 31.46875 -1.71875 C 27.5625 -3.019531 23.5625 -5.234375 19.46875 -8.359375 L 15.03125 -4.59375 C 12.96875 -2.832031 11.273438 -1.632812 9.953125 -1 C 8.628906 -0.375 7.132812 -0.0546875 5.46875 -0.046875 C 3.5625 -0.0234375 2.046875 -0.46875 0.921875 -1.375 C -0.203125 -2.28125 -0.769531 -3.523438 -0.78125 -5.109375 C -0.789062 -5.929688 -0.632812 -6.800781 -0.3125 -7.71875 L 5.65625 -26.296875 C 6.300781 -28.453125 7.203125 -29.992188 8.359375 -30.921875 C 9.515625 -31.847656 11.003906 -32.316406 12.828125 -32.328125 C 14.734375 -32.335938 16.457031 -31.679688 18 -30.359375 C 19.550781 -29.046875 21.582031 -26.65625 24.09375 -23.1875 C 26.78125 -19.394531 29.269531 -16.757812 31.5625 -15.28125 C 33.851562 -13.800781 36.570312 -13.070312 39.71875 -13.09375 C 41.96875 -13.113281 43.6875 -13.484375 44.875 -14.203125 C 46.070312 -14.921875 46.914062 -16.066406 47.40625 -17.640625 C 47.570312 -18.054688 47.648438 -18.675781 47.640625 -19.5 C 47.628906 -21.5 46.660156 -23.316406 44.734375 -24.953125 C 42.816406 -26.597656 39.863281 -28.570312 35.875 -30.875 C 31.613281 -33.414062 28.148438 -35.691406 25.484375 -37.703125 C 22.816406 -39.710938 20.492188 -42.242188 18.515625 -45.296875 C 16.546875 -48.359375 15.546875 -51.960938 15.515625 -56.109375 C 15.492188 -59.015625 15.929688 -61.878906 16.828125 -64.703125 C 18.523438 -70.441406 22.054688 -75.070312 27.421875 -78.59375 C 32.796875 -82.125 38.96875 -83.910156 45.9375 -83.953125 Z M 45.9375 -83.953125 "/></g></g></g><g fill="#313552" fill-opacity="1"><g transform="translate(804.837641, 295.844656)"><g/></g></g><g fill="#313552" fill-opacity="1"><g transform="translate(830.831755, 295.257609)"><g><path d="M 43.21875 -2.65625 C 36.269531 -2.101562 29.925781 -2.890625 24.1875 -5.015625 C 18.445312 -7.148438 13.742188 -10.59375 10.078125 -15.34375 C 6.421875 -20.09375 4.316406 -26.023438 3.765625 -33.140625 C 3.367188 -38.085938 3.804688 -43.523438 5.078125 -49.453125 C 7.921875 -62.160156 12.96875 -71.566406 20.21875 -77.671875 C 27.476562 -83.773438 35.488281 -87.171875 44.25 -87.859375 C 48.957031 -88.234375 53.1875 -87.859375 56.9375 -86.734375 C 60.695312 -85.617188 64.210938 -83.859375 67.484375 -81.453125 L 70.640625 -84.3125 C 72.722656 -86.238281 74.5 -87.59375 75.96875 -88.375 C 77.445312 -89.15625 79.144531 -89.617188 81.0625 -89.765625 C 83.125 -89.929688 84.8125 -89.609375 86.125 -88.796875 C 87.4375 -87.984375 88.160156 -86.710938 88.296875 -84.984375 C 88.367188 -84.066406 88.273438 -83.132812 88.015625 -82.1875 L 82.609375 -62.296875 C 82.023438 -60.015625 81.253906 -58.375 80.296875 -57.375 C 79.335938 -56.382812 77.820312 -55.804688 75.75 -55.640625 C 73.601562 -55.472656 71.785156 -56.097656 70.296875 -57.515625 C 68.816406 -58.941406 67.0625 -61.445312 65.03125 -65.03125 C 62.75 -68.757812 60.9375 -71.195312 59.59375 -72.34375 C 58.25 -73.488281 56.378906 -73.96875 53.984375 -73.78125 C 50.585938 -73.507812 47.484375 -71.160156 44.671875 -66.734375 C 41.859375 -62.316406 39.5 -55.828125 37.59375 -47.265625 C 35.988281 -40.066406 35.375 -34.113281 35.75 -29.40625 C 36.070312 -25.269531 37.101562 -22.25 38.84375 -20.34375 C 40.582031 -18.4375 42.773438 -17.585938 45.421875 -17.796875 C 49.304688 -18.109375 52.4375 -19.226562 54.8125 -21.15625 C 57.195312 -23.09375 59.59375 -25.65625 62 -28.84375 C 63.519531 -30.800781 64.757812 -32.253906 65.71875 -33.203125 C 66.6875 -34.148438 67.75 -34.671875 68.90625 -34.765625 C 70.394531 -34.878906 72.023438 -34.253906 73.796875 -32.890625 C 75.566406 -31.535156 76.46875 -30.109375 76.5 -28.609375 C 76.726562 -26.796875 75.484375 -23.867188 72.765625 -19.828125 C 70.046875 -15.796875 66.140625 -12.054688 61.046875 -8.609375 C 55.953125 -5.171875 50.007812 -3.1875 43.21875 -2.65625 Z M 43.21875 -2.65625 "/></g></g></g><g fill="#313552" fill-opacity="1"><g transform="translate(918.429223, 288.383301)"><g><path d="M 48.578125 -92.15625 C 58.941406 -93.5625 67.375 -92.21875 73.875 -88.125 C 80.382812 -84.039062 84.265625 -77.394531 85.515625 -68.1875 C 86.109375 -63.832031 86.085938 -59.054688 85.453125 -53.859375 C 84.242188 -44.328125 81.488281 -36 77.1875 -28.875 C 72.882812 -21.757812 67.378906 -16.066406 60.671875 -11.796875 C 53.972656 -7.535156 46.4375 -4.832031 38.0625 -3.6875 C 27.78125 -2.28125 19.390625 -3.625 12.890625 -7.71875 C 6.390625 -11.8125 2.507812 -18.460938 1.25 -27.671875 C 0.675781 -31.859375 0.71875 -36.757812 1.375 -42.375 C 2.507812 -51.832031 5.210938 -60.09375 9.484375 -67.15625 C 13.753906 -74.226562 19.222656 -79.875 25.890625 -84.09375 C 32.554688 -88.3125 40.117188 -91 48.578125 -92.15625 Z M 48.015625 -79.765625 C 45.546875 -79.429688 43.457031 -78.144531 41.75 -75.90625 C 40.050781 -73.664062 38.539062 -70.175781 37.21875 -65.4375 C 35.90625 -60.695312 34.6875 -54.1875 33.5625 -45.90625 C 31.832031 -33.9375 31.269531 -25.773438 31.875 -21.421875 C 32.21875 -18.867188 32.914062 -17.078125 33.96875 -16.046875 C 35.03125 -15.023438 36.546875 -14.648438 38.515625 -14.921875 C 40.984375 -15.253906 43.066406 -16.5625 44.765625 -18.84375 C 46.472656 -21.132812 47.96875 -24.628906 49.25 -29.328125 C 50.53125 -34.035156 51.789062 -40.445312 53.03125 -48.5625 C 54.675781 -60.34375 55.1875 -68.535156 54.5625 -73.140625 C 54.195312 -75.765625 53.484375 -77.585938 52.421875 -78.609375 C 51.367188 -79.640625 49.898438 -80.023438 48.015625 -79.765625 Z M 48.015625 -79.765625 "/></g></g></g><g fill="#313552" fill-opacity="1"><g transform="translate(1011.087257, 276.320019)"><g><path d="M 113.796875 -108.515625 C 115.515625 -108.867188 116.894531 -108.878906 117.9375 -108.546875 C 118.988281 -108.210938 119.613281 -107.5625 119.8125 -106.59375 C 119.894531 -106.1875 119.878906 -105.632812 119.765625 -104.9375 C 119.679688 -104.15625 119.453125 -103.535156 119.078125 -103.078125 C 118.710938 -102.617188 118.140625 -102.007812 117.359375 -101.25 C 116.210938 -100.25 115.347656 -99.21875 114.765625 -98.15625 C 114.179688 -97.101562 113.800781 -95.582031 113.625 -93.59375 L 109.75 -38.125 C 109.644531 -37 109.691406 -35.953125 109.890625 -34.984375 C 110.078125 -34.085938 110.378906 -33.363281 110.796875 -32.8125 C 111.210938 -32.257812 111.742188 -31.628906 112.390625 -30.921875 C 112.796875 -30.578125 113.171875 -30.207031 113.515625 -29.8125 C 113.859375 -29.414062 114.078125 -28.976562 114.171875 -28.5 C 114.203125 -28.332031 114.207031 -27.910156 114.1875 -27.234375 C 114.082031 -26.109375 113.488281 -25.175781 112.40625 -24.4375 C 111.332031 -23.707031 109.703125 -23.113281 107.515625 -22.65625 L 78.890625 -16.65625 C 77.179688 -16.300781 75.800781 -16.304688 74.75 -16.671875 C 73.707031 -17.035156 73.082031 -17.707031 72.875 -18.6875 C 72.769531 -19.175781 72.78125 -19.734375 72.90625 -20.359375 C 73.03125 -20.972656 73.269531 -21.550781 73.625 -22.09375 C 73.976562 -22.632812 74.3125 -23.046875 74.625 -23.328125 C 74.945312 -23.609375 75.175781 -23.847656 75.3125 -24.046875 C 76.457031 -25.035156 77.34375 -26.066406 77.96875 -27.140625 C 78.59375 -28.210938 79 -29.738281 79.1875 -31.71875 L 81.546875 -66.53125 L 58.1875 -20.828125 C 56.25 -17.117188 54.613281 -14.507812 53.28125 -13 C 51.945312 -11.5 50.265625 -10.535156 48.234375 -10.109375 C 46.285156 -9.703125 44.628906 -10.015625 43.265625 -11.046875 C 41.910156 -12.078125 40.46875 -13.992188 38.9375 -16.796875 L 19.59375 -52.03125 L 17.203125 -18.609375 C 17.109375 -17.484375 17.160156 -16.4375 17.359375 -15.46875 C 17.566406 -14.488281 17.878906 -13.703125 18.296875 -13.109375 C 18.710938 -12.523438 19.285156 -11.925781 20.015625 -11.3125 C 20.960938 -10.40625 21.503906 -9.628906 21.640625 -8.984375 C 21.671875 -8.816406 21.671875 -8.394531 21.640625 -7.71875 C 21.566406 -6.507812 21.003906 -5.5625 19.953125 -4.875 C 18.910156 -4.195312 17.253906 -3.617188 14.984375 -3.140625 L 4.875 -1.015625 C 3.164062 -0.660156 1.785156 -0.664062 0.734375 -1.03125 C -0.316406 -1.40625 -0.941406 -2.082031 -1.140625 -3.0625 C -1.242188 -3.550781 -1.238281 -4.101562 -1.125 -4.71875 C -0.988281 -5.6875 -0.609375 -6.488281 0.015625 -7.125 C 0.648438 -7.757812 1.039062 -8.140625 1.1875 -8.265625 C 2.320312 -9.347656 3.203125 -10.398438 3.828125 -11.421875 C 4.460938 -12.441406 4.863281 -13.988281 5.03125 -16.0625 L 8.859375 -71.78125 L 5.5625 -77.828125 C 4.90625 -78.960938 4.457031 -80.097656 4.21875 -81.234375 C 3.90625 -82.703125 4.144531 -83.851562 4.9375 -84.6875 C 5.738281 -85.53125 7.113281 -86.15625 9.0625 -86.5625 L 27.953125 -90.53125 C 30.378906 -91.039062 32.296875 -90.890625 33.703125 -90.078125 C 35.109375 -89.273438 36.441406 -87.648438 37.703125 -85.203125 L 58.359375 -47.3125 L 82.765625 -95.28125 C 84.335938 -98.320312 86.046875 -100.476562 87.890625 -101.75 C 89.734375 -103.03125 92.320312 -104.019531 95.65625 -104.71875 Z M 113.796875 -108.515625 "/></g></g></g><g fill="#313552" fill-opacity="1"><g transform="translate(1139.02493, 248.671391)"><g><path d="M 42.015625 -97.984375 C 50.472656 -100.378906 57.515625 -100.390625 63.140625 -98.015625 C 68.773438 -95.640625 72.453125 -91.421875 74.171875 -85.359375 C 74.847656 -82.960938 75.195312 -80.335938 75.21875 -77.484375 C 75.238281 -68.878906 72.5 -61.726562 67 -56.03125 C 61.5 -50.332031 53.710938 -46.0625 43.640625 -43.21875 L 31.3125 -39.734375 L 31.3125 -24.125 C 31.289062 -23.582031 31.394531 -22.910156 31.625 -22.109375 C 31.9375 -21.003906 32.457031 -20.164062 33.1875 -19.59375 C 33.914062 -19.019531 34.929688 -18.40625 36.234375 -17.75 C 37.335938 -17.195312 38.109375 -16.765625 38.546875 -16.453125 C 38.984375 -16.148438 39.28125 -15.71875 39.4375 -15.15625 C 39.820312 -13.789062 39.453125 -12.648438 38.328125 -11.734375 C 37.203125 -10.816406 35.398438 -10.003906 32.921875 -9.296875 L 2.875 -0.8125 C 0.800781 -0.226562 -0.859375 -0.164062 -2.109375 -0.625 C -3.367188 -1.082031 -4.03125 -2.039062 -4.09375 -3.5 C -4.125 -4.257812 -3.984375 -4.921875 -3.671875 -5.484375 C -3.367188 -6.046875 -2.851562 -6.734375 -2.125 -7.546875 C -1 -8.722656 -0.160156 -9.863281 0.390625 -10.96875 C 0.941406 -12.070312 1.191406 -13.613281 1.140625 -15.59375 L 1.171875 -71.3125 C 1.203125 -72.445312 1.082031 -73.492188 0.8125 -74.453125 C 0.5625 -75.328125 0.210938 -76.023438 -0.234375 -76.546875 C -0.679688 -77.066406 -1.257812 -77.660156 -1.96875 -78.328125 C -2.96875 -79.160156 -3.554688 -79.894531 -3.734375 -80.53125 C -3.804688 -80.769531 -3.851562 -81.234375 -3.875 -81.921875 C -3.851562 -83.035156 -3.363281 -83.96875 -2.40625 -84.71875 C -1.445312 -85.46875 0.148438 -86.160156 2.390625 -86.796875 Z M 46.109375 -71.609375 C 46.148438 -74.804688 45.851562 -77.523438 45.21875 -79.765625 C 43.914062 -84.390625 41.109375 -86.09375 36.796875 -84.875 L 31.40625 -83.34375 L 31.265625 -51.359375 L 36.546875 -52.859375 C 39.890625 -53.804688 42.316406 -55.632812 43.828125 -58.34375 C 45.347656 -61.050781 46.109375 -65.472656 46.109375 -71.609375 Z M 46.109375 -71.609375 "/></g></g></g><g fill="#313552" fill-opacity="1"><g transform="translate(1222.444174, 225.08009)"><g><path d="M 67.140625 -38.578125 C 67.179688 -37.453125 67.375 -36.378906 67.71875 -35.359375 C 68.019531 -34.492188 68.382812 -33.804688 68.8125 -33.296875 C 69.25 -32.785156 69.664062 -32.398438 70.0625 -32.140625 C 70.46875 -31.878906 70.738281 -31.6875 70.875 -31.5625 C 71.925781 -31.050781 72.582031 -30.40625 72.84375 -29.625 C 72.90625 -29.46875 72.960938 -29.046875 73.015625 -28.359375 C 73.078125 -27.148438 72.648438 -26.144531 71.734375 -25.34375 C 70.828125 -24.550781 69.273438 -23.78125 67.078125 -23.03125 L 39.1875 -13.453125 C 37.539062 -12.890625 36.171875 -12.726562 35.078125 -12.96875 C 33.992188 -13.207031 33.289062 -13.800781 32.96875 -14.75 C 32.800781 -15.21875 32.738281 -15.765625 32.78125 -16.390625 C 32.8125 -17.097656 32.976562 -17.703125 33.28125 -18.203125 C 33.59375 -18.703125 34.066406 -19.320312 34.703125 -20.0625 C 35.710938 -21.195312 36.457031 -22.332031 36.9375 -23.46875 C 37.414062 -24.601562 37.597656 -26.242188 37.484375 -28.390625 L 37.0625 -39.578125 L 18.703125 -33.265625 L 17.84375 -25.46875 C 17.5 -22.101562 17.609375 -19.597656 18.171875 -17.953125 C 18.492188 -17.003906 18.914062 -16.289062 19.4375 -15.8125 C 19.957031 -15.332031 20.632812 -14.890625 21.46875 -14.484375 C 22.238281 -14.035156 22.789062 -13.628906 23.125 -13.265625 C 23.46875 -12.910156 23.6875 -12.351562 23.78125 -11.59375 C 23.875 -10.300781 23.5 -9.269531 22.65625 -8.5 C 21.820312 -7.738281 20.347656 -6.992188 18.234375 -6.265625 L 0.703125 -0.25 C -1.097656 0.375 -2.582031 0.515625 -3.75 0.171875 C -4.925781 -0.171875 -5.703125 -0.894531 -6.078125 -2 C -6.503906 -3.25 -6.394531 -4.398438 -5.75 -5.453125 C -5.101562 -6.515625 -4.023438 -7.785156 -2.515625 -9.265625 C -0.566406 -11.253906 0.910156 -13.054688 1.921875 -14.671875 C 2.941406 -16.296875 3.617188 -18.304688 3.953125 -20.703125 L 10 -71.3125 C 10.882812 -79.164062 12.984375 -85.351562 16.296875 -89.875 C 19.617188 -94.394531 24.851562 -97.878906 32 -100.328125 C 40 -103.078125 46.753906 -103.578125 52.265625 -101.828125 C 57.785156 -100.078125 61.539062 -96.296875 63.53125 -90.484375 C 64.363281 -88.046875 64.828125 -85.398438 64.921875 -82.546875 Z M 36.5625 -52.546875 L 35.6875 -75.40625 C 35.675781 -76.457031 35.492188 -77.492188 35.140625 -78.515625 C 34.628906 -80.003906 33.832031 -80.976562 32.75 -81.4375 C 31.675781 -81.894531 30.394531 -81.867188 28.90625 -81.359375 C 27.019531 -80.710938 25.597656 -79.609375 24.640625 -78.046875 C 23.691406 -76.492188 23.03125 -74.078125 22.65625 -70.796875 L 20.078125 -46.890625 Z M 36.5625 -52.546875 "/></g></g></g><g fill="#313552" fill-opacity="1"><g transform="translate(1306.256262, 196.300856)"><g><path d="M 58.390625 -113.375 C 61.535156 -114.65625 63.515625 -114.296875 64.328125 -112.296875 C 64.554688 -111.765625 64.679688 -111.367188 64.703125 -111.109375 C 64.785156 -110.253906 64.679688 -109.519531 64.390625 -108.90625 C 64.097656 -108.289062 63.640625 -107.539062 63.015625 -106.65625 C 62.148438 -105.5 61.503906 -104.335938 61.078125 -103.171875 C 60.660156 -102.015625 60.546875 -100.445312 60.734375 -98.46875 L 67.328125 -41.46875 C 67.910156 -36.332031 67.597656 -32.441406 66.390625 -29.796875 C 65.179688 -27.160156 62.847656 -25.132812 59.390625 -23.71875 C 56.328125 -22.46875 53.410156 -22.328125 50.640625 -23.296875 C 47.867188 -24.273438 44.832031 -26.289062 41.53125 -29.34375 L 9.15625 -58.84375 L 13.234375 -21.265625 C 13.398438 -20.171875 13.640625 -19.242188 13.953125 -18.484375 C 14.359375 -17.472656 14.867188 -16.710938 15.484375 -16.203125 C 16.097656 -15.703125 16.851562 -15.226562 17.75 -14.78125 C 19.007812 -14.125 19.78125 -13.453125 20.0625 -12.765625 C 20.25 -12.296875 20.347656 -11.929688 20.359375 -11.671875 C 20.492188 -10.472656 20.109375 -9.441406 19.203125 -8.578125 C 18.296875 -7.722656 16.769531 -6.851562 14.625 -5.96875 L 2.0625 -0.84375 C -1.070312 0.4375 -3.046875 0.078125 -3.859375 -1.921875 C -4.078125 -2.453125 -4.203125 -2.851562 -4.234375 -3.125 C -4.304688 -3.976562 -4.203125 -4.707031 -3.921875 -5.3125 C -3.640625 -5.925781 -3.179688 -6.675781 -2.546875 -7.5625 C -1.679688 -8.71875 -1.035156 -9.878906 -0.609375 -11.046875 C -0.179688 -12.210938 -0.0625 -13.78125 -0.25 -15.75 L -6.75 -73.46875 L -10.15625 -76.5 C -11.539062 -77.726562 -12.46875 -78.914062 -12.9375 -80.0625 C -13.914062 -82.445312 -12.875 -84.265625 -9.8125 -85.515625 L 7.25 -92.484375 C 9.707031 -93.484375 11.796875 -93.6875 13.515625 -93.09375 C 15.242188 -92.5 17.414062 -91.078125 20.03125 -88.828125 L 50.640625 -61.953125 L 47.25 -92.953125 C 47.03125 -94.128906 46.78125 -95.054688 46.5 -95.734375 C 46.09375 -96.742188 45.582031 -97.5 44.96875 -98 C 44.363281 -98.507812 43.613281 -98.988281 42.71875 -99.4375 C 41.46875 -100.09375 40.703125 -100.765625 40.421875 -101.453125 C 40.222656 -101.921875 40.113281 -102.285156 40.09375 -102.546875 C 39.96875 -103.742188 40.351562 -104.773438 41.25 -105.640625 C 42.15625 -106.503906 43.6875 -107.375 45.84375 -108.25 Z M 58.390625 -113.375 "/></g></g></g><g fill="#313552" fill-opacity="1"><g transform="translate(1391.764504, 161.432633)"><g><path d="M 53.3125 -118.1875 C 56.601562 -119.769531 59.804688 -120 62.921875 -118.875 C 66.046875 -117.757812 68.398438 -115.5625 69.984375 -112.28125 C 70.191406 -111.820312 70.515625 -110.957031 70.953125 -109.6875 C 72.078125 -105.8125 71.945312 -102.484375 70.5625 -99.703125 C 69.1875 -96.921875 67.039062 -94.832031 64.125 -93.4375 C 62.175781 -92.5 60.382812 -92.003906 58.75 -91.953125 C 57.125 -91.898438 55.375 -92.289062 53.5 -93.125 L 46.59375 -60.125 L 49.796875 -40.265625 C 49.867188 -39.742188 50.085938 -39.109375 50.453125 -38.359375 C 50.953125 -37.316406 51.632812 -36.566406 52.5 -36.109375 C 53.363281 -35.660156 54.476562 -35.253906 55.84375 -34.890625 C 57.03125 -34.535156 57.929688 -34.1875 58.546875 -33.84375 C 59.171875 -33.5 59.535156 -32.9375 59.640625 -32.15625 C 59.847656 -30.96875 59.472656 -29.890625 58.515625 -28.921875 C 57.554688 -27.953125 56.066406 -26.984375 54.046875 -26.015625 L 25.796875 -12.421875 C 23.847656 -11.484375 22.238281 -11.140625 20.96875 -11.390625 C 19.695312 -11.648438 18.898438 -12.492188 18.578125 -13.921875 C 18.398438 -14.660156 18.421875 -15.332031 18.640625 -15.9375 C 18.859375 -16.550781 19.269531 -17.378906 19.875 -18.421875 C 20.664062 -19.617188 21.226562 -20.828125 21.5625 -22.046875 C 21.894531 -23.265625 21.925781 -24.820312 21.65625 -26.71875 L 18.40625 -46.6875 L -6.046875 -71.125 C -7.847656 -72.925781 -9.53125 -74.160156 -11.09375 -74.828125 C -12.664062 -75.503906 -14.382812 -76.078125 -16.25 -76.546875 C -17.375 -76.753906 -18.226562 -76.988281 -18.8125 -77.25 C -19.40625 -77.519531 -19.847656 -77.953125 -20.140625 -78.546875 C -20.578125 -79.453125 -20.53125 -80.375 -20 -81.3125 C -19.476562 -82.25 -18.472656 -83.078125 -16.984375 -83.796875 L 12.9375 -98.203125 C 15.5625 -99.460938 17.460938 -100.101562 18.640625 -100.125 C 19.828125 -100.144531 20.734375 -99.609375 21.359375 -98.515625 C 21.679688 -97.847656 21.804688 -97.195312 21.734375 -96.5625 C 21.671875 -95.9375 21.503906 -95.144531 21.234375 -94.1875 C 20.984375 -92.96875 20.820312 -91.992188 20.75 -91.265625 C 20.6875 -90.535156 20.859375 -89.757812 21.265625 -88.9375 C 21.359375 -88.71875 21.664062 -88.269531 22.1875 -87.59375 L 36.84375 -70.359375 L 41.3125 -97.5 C 42.289062 -103.3125 43.695312 -107.804688 45.53125 -110.984375 C 47.363281 -114.171875 49.957031 -116.570312 53.3125 -118.1875 Z M 53.3125 -118.1875 "/></g></g></g></g></g></svg>